<svg xmlns="http://www.w3.org/2000/svg" width="640" height="640" viewBox="0 0 640 640" version="1.1">
	<path d="M 314.881 58.503 C 311.770 60.194, 309 65.572, 309 69.921 L 309 73.041 304.822 70.909 C 302.525 69.737, 298.109 68.548, 295.009 68.267 C 288.569 67.683, 284.525 69.258, 280.982 73.730 C 279.119 76.082, 278.865 77.369, 279.299 82.255 C 279.771 87.553, 279.640 88.042, 277.656 88.417 C 266.234 90.580, 247.350 95.585, 239.456 98.542 C 229.899 102.121, 229.686 102.153, 227.456 100.343 C 208.578 85.018, 195.047 77.630, 174.444 71.399 C 167.213 69.212, 163.393 68.675, 154.500 68.597 C 144.878 68.512, 142.906 68.792, 138.761 70.834 C 129.186 75.549, 121.277 88.154, 116.258 106.696 C 113.770 115.891, 113.603 117.867, 113.579 138.500 C 113.556 159.198, 113.721 161.210, 116.382 172.500 C 117.937 179.100, 120.253 187.276, 121.529 190.669 L 123.849 196.838 118.823 208.102 C 107.113 234.345, 101.066 261.141, 101.019 287 L 101.004 295.500 95.095 295.166 C 87.863 294.757, 84.494 296.619, 82.912 301.900 C 80.203 310.941, 86.445 320.329, 101.111 329.272 C 104.058 331.069, 106.755 338.837, 104.660 339.497 C 104.022 339.698, 100.806 340.612, 97.513 341.528 C 88.755 343.964, 86 345.623, 86 348.458 C 86 352.780, 88.646 352.647, 107.160 347.394 C 108.373 347.049, 109.149 347.942, 110.046 350.711 C 110.721 352.795, 112.337 356.623, 113.637 359.217 C 114.936 361.811, 116 364.324, 116 364.801 C 116 365.278, 113.103 367.633, 109.562 370.034 C 102.210 375.020, 99.987 378.075, 101.972 380.466 C 103.845 382.724, 104.828 382.450, 112.902 377.426 C 116.944 374.910, 120.575 373.223, 120.971 373.676 C 121.366 374.129, 124.109 378.100, 127.066 382.500 C 135.135 394.506, 155.207 414.117, 168.404 422.888 C 186.205 434.718, 205.131 443.483, 224.914 449.059 C 230.642 450.674, 235.518 452.185, 235.751 452.418 C 235.984 452.650, 234.575 457.569, 232.621 463.348 C 226.278 482.103, 224.594 492.264, 224.641 511.500 C 224.677 526.604, 224.976 529.616, 227.321 538.500 C 230.558 550.757, 237.370 564.773, 243.429 571.641 C 259.485 589.840, 282.731 591.851, 295.941 576.185 L 300.041 571.323 304.770 572.102 C 310.729 573.083, 328.844 573.090, 335.689 572.114 L 340.879 571.374 343.881 575.634 C 350.301 584.741, 362.861 588.783, 374.952 585.631 C 385.946 582.765, 394.717 575.734, 402.525 563.529 C 404.470 560.488, 406.385 557.991, 406.781 557.980 C 407.176 557.969, 410.650 557.512, 414.500 556.963 C 429.046 554.891, 440.705 549.224, 450.095 539.663 C 467.816 521.620, 464.183 495, 444 495 C 436.300 495, 430.385 499.152, 420.500 511.495 L 416.500 516.490 415.822 504.995 C 414.985 490.803, 412.110 476.383, 407.448 462.989 C 405.493 457.371, 404.082 452.585, 404.313 452.354 C 404.544 452.122, 408.858 450.803, 413.899 449.422 C 433.857 443.953, 453.466 434.936, 471.590 422.893 C 484.813 414.108, 505.800 393.600, 513.950 381.500 C 516.914 377.100, 519.467 373.333, 519.624 373.129 C 519.780 372.925, 523.186 374.855, 527.191 377.417 C 535.315 382.615, 538.330 382.972, 538.812 378.794 C 539.078 376.488, 538.201 375.408, 532.885 371.494 C 529.453 368.968, 526.036 366.560, 525.290 366.142 C 524.197 365.531, 524.409 364.331, 526.387 359.942 C 527.736 356.949, 529.518 352.835, 530.348 350.800 L 531.856 347.101 540.981 349.601 C 550.253 352.142, 553.362 352.104, 554.385 349.439 C 555.343 346.942, 551.442 344.188, 543.791 341.958 C 539.781 340.789, 535.976 339.675, 535.336 339.481 C 534.462 339.217, 534.489 338.057, 535.445 334.821 C 536.494 331.268, 537.574 330.014, 541.609 327.668 C 548.362 323.741, 552.593 319.458, 555.516 313.592 C 558.207 308.192, 558.639 304.117, 556.883 300.684 C 554.709 296.434, 551.857 295.046, 545.250 295.022 L 539 295 539 284.378 C 539 260.361, 532.090 231.169, 520.557 206.468 L 516.340 197.435 519.163 189.033 C 525.328 170.686, 526.504 162.540, 526.458 138.500 C 526.419 117.826, 526.254 115.897, 523.723 106.500 C 516.634 80.175, 505.180 67.981, 487.568 68.008 C 468.327 68.036, 440.754 78.714, 421.327 93.659 C 417.151 96.872, 412.988 100.055, 412.075 100.734 C 410.710 101.749, 408.648 101.337, 400.458 98.409 C 388.617 94.176, 370.784 89.721, 359 88.050 L 350.500 86.846 347.246 79.976 C 343.385 71.824, 334.166 61.441, 328.500 58.864 C 323.724 56.691, 318.472 56.552, 314.881 58.503 M 319.482 67.660 C 317.374 69.769, 317.598 72.385, 320.688 81.745 C 322.758 88.018, 323.131 90.269, 322.245 91.155 C 321.038 92.362, 321.187 92.445, 308.500 83.488 C 301.767 78.734, 293.929 76.256, 290.529 77.805 C 289.138 78.439, 288 79.762, 288 80.746 C 288 83.962, 292.919 89.871, 299.078 94.053 C 302.399 96.308, 304.942 98.681, 304.731 99.327 C 304.032 101.457, 297.795 101.246, 292.839 98.925 L 288.075 96.693 276.721 98.831 C 248.313 104.180, 220.690 115.103, 199.319 129.440 C 195.580 131.948, 191.813 134, 190.948 134 C 190.082 134, 188.052 132.593, 186.437 130.874 C 182.348 126.520, 174.510 123.022, 168.821 123.010 C 160.358 122.992, 159.134 127.562, 166.119 133.095 C 171.815 137.606, 171.312 139.482, 164.022 140.916 C 154.815 142.727, 149.291 148.507, 153.460 151.967 C 154.355 152.709, 157.164 153.047, 160.710 152.839 C 168.556 152.379, 168.360 153.717, 159 164.499 C 147.198 178.094, 139.619 189.340, 131.661 205.063 C 117.039 233.951, 110.463 261.964, 111.184 292.290 C 111.561 308.170, 111.456 308.307, 101 305.500 C 93.690 303.538, 92 303.604, 92 305.852 C 92 311.101, 101.341 319.558, 111.045 323.097 C 118.136 325.682, 119.050 326.732, 116.210 329.031 C 114.519 330.400, 114.258 331.307, 114.890 333.619 L 115.678 336.500 123.601 336.184 C 131.989 335.850, 137 337.035, 137 339.353 C 137 341.859, 134.217 343.160, 126.882 344.081 C 122.922 344.578, 119.458 345.208, 119.186 345.481 C 118.564 346.103, 123.922 358.834, 125.116 359.572 C 125.599 359.870, 128.644 358.926, 131.882 357.473 C 138.977 354.288, 142.500 354.434, 142.500 357.910 C 142.500 359.834, 141.239 361.012, 136.250 363.750 C 132.813 365.636, 130 367.628, 130 368.176 C 130 370.828, 141.654 385.666, 151.496 395.546 C 175.263 419.405, 211.631 437.777, 247.500 444.045 C 262.709 446.702, 266.951 449.180, 263.274 453.256 C 261.724 454.974, 260.524 455.166, 253.760 454.777 L 246.020 454.332 244.125 459.416 C 236.342 480.302, 233.493 496.546, 234.290 515.500 C 235.193 536.967, 241.331 554.659, 251.873 566.178 C 261.949 577.189, 274.517 580.229, 284.304 574.022 C 286.887 572.384, 288.992 570.472, 288.983 569.772 C 288.974 569.072, 286.600 567.477, 283.708 566.226 C 277.578 563.574, 275.047 560.524, 277.196 558.376 C 278.356 557.215, 280.091 557.416, 288.533 559.693 C 297.877 562.213, 299.843 562.382, 320 562.403 C 340.296 562.424, 342.058 562.273, 351.467 559.715 C 359.944 557.410, 361.640 557.212, 362.814 558.386 C 363.860 559.431, 363.933 560.257, 363.115 561.786 C 362.067 563.744, 354.581 568, 352.184 568 C 350.377 568, 350.768 569.768, 353.088 572.088 C 358.447 577.447, 369.102 578.565, 377.500 574.649 C 384.281 571.487, 393.058 561.803, 397.487 552.594 C 402.880 541.382, 405.090 531.527, 405.721 515.886 C 406.501 496.541, 403.739 479.636, 396.901 461.901 L 393.971 454.302 386.736 454.766 C 380.499 455.165, 379.155 454.945, 377 453.175 L 374.500 451.122 376.512 449.077 C 377.956 447.609, 382.188 446.294, 391.512 444.416 C 414.692 439.747, 440.375 430.111, 458.335 419.346 C 476.346 408.550, 495.336 391, 505.858 375.423 L 511.092 367.677 504.544 364.120 C 498.303 360.729, 496.126 358.224, 497.494 356.009 C 498.558 354.288, 503.264 354.910, 508.849 357.510 C 511.791 358.879, 514.398 360, 514.642 360 C 515.283 360, 520.998 347.718, 520.999 346.338 C 521 345.699, 519.200 344.911, 517 344.588 C 514.800 344.265, 511.226 343.740, 509.058 343.422 C 506.889 343.104, 504.541 342.152, 503.840 341.307 C 502.774 340.022, 502.969 339.444, 505.029 337.776 C 507.233 335.991, 508.399 335.851, 516.108 336.455 L 524.724 337.129 525.356 333.970 C 525.856 331.470, 525.539 330.447, 523.835 329.067 C 522.651 328.108, 521.955 326.881, 522.290 326.340 C 522.624 325.799, 526.183 324.067, 530.199 322.492 C 538.848 319.099, 548 310.911, 548 306.565 C 548 303.545, 547.388 303.475, 538.649 305.502 C 531.674 307.119, 528.990 306.741, 529.016 304.143 C 529.025 303.239, 528.840 294.175, 528.605 284 C 527.944 255.464, 523.064 235.390, 510.370 209 C 502.730 193.114, 492.279 177.157, 481.001 164.156 C 476.543 159.017, 473.080 154.292, 473.306 153.656 C 473.560 152.940, 475.576 152.607, 478.608 152.781 C 485.733 153.191, 488 152.416, 488 149.570 C 488 146.643, 483.228 142.398, 479.024 141.585 C 477.361 141.263, 474.650 140.739, 473 140.421 C 468.802 139.610, 469.208 137.479, 474.500 132.551 C 479.410 127.979, 479.793 126.935, 477.429 124.571 C 473.492 120.635, 459.779 124.256, 453.563 130.874 C 451.948 132.593, 449.918 134, 449.052 134 C 448.187 134, 444.420 131.948, 440.681 129.440 C 425.125 119.004, 404.679 109.683, 384.518 103.836 C 373.828 100.736, 354.681 97, 349.480 97 C 345.584 97, 344.441 95.681, 339.521 85.513 C 335.466 77.132, 327.409 67.863, 323.229 66.770 C 321.863 66.413, 320.377 66.766, 319.482 67.660 M 143.459 79.807 C 135.777 83.435, 130.278 92.717, 125.867 109.500 C 123.758 117.525, 123.502 120.667, 123.505 138.500 C 123.507 151.327, 123.981 160.652, 124.826 164.500 C 127.186 175.252, 130.205 186, 130.860 185.982 C 131.212 185.972, 132.933 183.772, 134.685 181.092 C 136.437 178.412, 140.909 172.486, 144.623 167.923 C 149.221 162.274, 150.940 159.480, 150.008 159.169 C 149.254 158.918, 147.595 157.587, 146.319 156.210 C 141.468 150.976, 144.458 140.847, 151.990 137.005 L 155.778 135.072 154.254 130.786 C 152.880 126.925, 152.885 126.131, 154.304 122.772 C 156.402 117.807, 161.132 115.015, 167.500 114.982 L 172.500 114.956 170 112.909 C 163.803 107.834, 155.539 103.067, 150.865 101.869 C 142.538 99.735, 143.082 95.668, 151.672 95.840 C 159.602 95.999, 169.394 101.543, 179.867 111.801 C 184.751 116.586, 189.425 121.535, 190.253 122.801 L 191.759 125.101 198.534 120.365 C 202.260 117.761, 208.652 113.724, 212.739 111.395 L 220.168 107.161 214.547 102.749 C 196.757 88.787, 174.562 79.486, 156.500 78.426 C 148.980 77.985, 146.835 78.212, 143.459 79.807 M 475.424 79.084 C 460.410 81.597, 438.755 92.064, 424.202 103.841 L 419.904 107.320 425.702 110.452 C 433.171 114.487, 439.528 118.527, 444.312 122.278 L 448.125 125.267 449.708 122.883 C 450.579 121.573, 454.938 116.867, 459.396 112.426 C 471.139 100.726, 484.434 93.952, 491.790 95.919 C 496.612 97.209, 495.221 100.002, 488.762 102.001 C 483.132 103.743, 476.450 107.587, 470.500 112.509 L 467.500 114.990 472.500 114.999 C 478.720 115.010, 483.407 117.689, 485.731 122.561 C 487.304 125.862, 487.314 126.474, 485.852 130.540 L 484.268 134.943 487.884 136.809 C 495.607 140.793, 498.738 151.353, 493.693 156.398 C 492.424 157.666, 490.746 158.918, 489.963 159.179 C 488.956 159.515, 490.462 161.978, 495.095 167.577 C 498.701 171.935, 503.085 177.615, 504.838 180.199 C 506.591 182.783, 508.436 185.152, 508.938 185.462 C 510.966 186.715, 515.658 165.427, 517.014 148.823 C 519.056 123.833, 513.264 96.786, 503.347 85 C 497.946 78.582, 489.328 76.756, 475.424 79.084 M 219.344 184.041 C 210.179 185.855, 200.630 193.084, 201.196 197.780 C 201.743 202.314, 204.070 202.697, 212.918 199.710 C 217.334 198.220, 222.098 197, 223.505 197 C 227.548 197, 232.742 194.389, 233.509 191.972 C 234.563 188.650, 232.173 185.143, 228.081 184.006 C 226.112 183.459, 224.275 183.058, 224 183.115 C 223.725 183.172, 221.630 183.589, 219.344 184.041 M 412.090 183.889 C 410.765 184.251, 408.830 185.687, 407.791 187.079 C 404.239 191.835, 408.865 197, 416.676 197 C 417.984 197, 422.666 198.220, 427.082 199.710 C 435.899 202.686, 438.256 202.311, 438.798 197.844 C 439.238 194.210, 435.712 190.463, 428.712 187.129 C 422.120 183.990, 416.051 182.807, 412.090 183.889 M 419.500 223.120 C 386.879 226.193, 361.035 255.315, 361.035 289 C 361.035 314.784, 375.463 337.139, 399.535 348.653 C 409.519 353.428, 419.355 355.314, 431 354.686 C 449.038 353.712, 462.766 347.354, 475.127 334.247 C 494.228 313.992, 498.289 285.292, 485.773 259 C 482.452 252.022, 480.185 248.970, 473.114 241.956 C 457.886 226.853, 441.393 221.058, 419.500 223.120 M 196 224.515 C 185.383 227.397, 176.052 232.936, 167.402 241.491 C 154.450 254.300, 148.352 267.800, 147.290 286.009 C 146.618 297.533, 148.980 308.408, 154.673 319.999 C 159.996 330.840, 171.563 342.208, 183.012 347.852 C 201.750 357.089, 222.237 357.334, 240.752 348.540 C 266.031 336.536, 280.085 313.281, 278.770 285.635 C 277.475 258.434, 261.981 236.869, 236.500 226.806 C 229.150 223.903, 227.403 223.621, 215 223.334 C 205.303 223.110, 199.951 223.442, 196 224.515 M 201.317 232.503 C 179.391 237.269, 162.727 254.088, 157.349 276.878 C 155.328 285.447, 156.071 299.144, 159.024 307.723 C 171.405 343.701, 214.372 357.912, 245.992 336.488 C 257.969 328.373, 266.881 315.622, 270.014 302.117 C 271.612 295.232, 271.616 282.794, 270.022 275.883 C 263.020 245.506, 231.897 225.856, 201.317 232.503 M 414 232.493 C 392.999 237.236, 375.761 253.874, 370.518 274.460 C 368.549 282.191, 368.580 295.584, 370.585 303.356 C 377.097 328.597, 400.366 346.479, 426.500 346.325 C 443.130 346.228, 455.919 341.074, 467.010 330 C 488.293 308.751, 489.766 275.311, 470.464 251.615 C 464.831 244.700, 452.883 236.667, 444.206 233.963 C 435.426 231.226, 422.414 230.593, 414 232.493 M 204.893 244.374 C 172.542 255.795, 162.872 296.710, 186.826 320.814 C 205.538 339.643, 233.397 339.755, 252.076 321.076 C 259.900 313.252, 263.536 306.158, 265.196 295.476 C 268.672 273.122, 256.193 251.815, 235.308 244.445 C 225.948 241.142, 214.128 241.114, 204.893 244.374 M 405.772 244.345 C 387.797 250.470, 376.365 265.057, 374.412 284.358 C 372.122 306.983, 388.425 329.172, 410.799 333.884 C 436.874 339.375, 462.264 321.536, 466.210 294.953 C 469.493 272.828, 455.505 250.561, 434.187 243.976 C 425.315 241.236, 414.482 241.376, 405.772 244.345 M 196.020 253.752 C 188.646 257.456, 185.789 266.861, 189.960 273.701 C 192.771 278.313, 197.240 280.327, 203.354 279.740 C 207.536 279.338, 208.930 278.653, 211.688 275.643 C 218.008 268.747, 215.971 257.706, 207.684 253.943 C 202.471 251.577, 200.416 251.543, 196.020 253.752 M 397.450 253.407 C 392.219 255.685, 389 260.455, 389 265.929 C 389 274.227, 394.420 279.955, 402.300 279.985 C 410.395 280.017, 415.990 274.234, 415.996 265.827 C 416.001 260.368, 412.686 255.602, 407.329 253.364 C 403.318 251.688, 401.376 251.697, 397.450 253.407 M 238.571 304.571 C 236.450 306.693, 236.585 311.315, 238.829 313.345 C 241.139 315.435, 245.380 315.477, 247.429 313.429 C 249.701 311.156, 249.476 305.325, 247.066 304.035 C 244.244 302.525, 240.374 302.769, 238.571 304.571 M 439.571 304.571 C 437.450 306.693, 437.585 311.315, 439.829 313.345 C 443.887 317.018, 450 314.407, 450 309 C 450 307.429, 449.293 305.436, 448.429 304.571 C 447.564 303.707, 445.571 303, 444 303 C 442.429 303, 440.436 303.707, 439.571 304.571 M 307.763 310.565 C 301.945 313.722, 303.712 320.523, 311.656 325.544 C 315.181 327.772, 316 328.847, 316 331.244 C 316 338.833, 309.744 345.333, 302.440 345.333 C 296.787 345.333, 293.572 343.065, 291.487 337.606 C 288.746 330.429, 284 330.609, 284 337.890 C 284 345.936, 292.412 353, 301.992 353 C 308.209 353, 312.476 351.258, 316.793 346.958 L 320.086 343.678 323.793 347.280 C 328.365 351.721, 331.633 353.005, 338.315 352.984 C 347.749 352.954, 356 345.951, 356 337.975 C 356 330.827, 351.057 330.322, 348.820 337.241 C 347.161 342.371, 343.557 345.104, 338.355 345.176 C 332.607 345.255, 328.561 342.790, 326.102 337.712 C 322.799 330.887, 323.242 328.634, 328.494 325.556 C 336.250 321.011, 338.206 314.316, 332.750 310.989 C 330.098 309.372, 327.753 309.014, 320 309.044 C 313.553 309.068, 309.620 309.557, 307.763 310.565 M 283.578 466.537 C 275.855 469.285, 272.212 469.568, 267.322 467.799 C 260.975 465.504, 260.525 470.473, 266.709 474.561 C 270.534 477.090, 277.935 476.900, 286.205 474.062 C 290.374 472.631, 293.882 472.005, 295.481 472.406 L 298.052 473.051 295.276 475.456 C 293.220 477.237, 292.790 478.156, 293.618 478.999 C 294.453 479.848, 295.715 479.728, 298.599 478.523 C 302.203 477.017, 302.546 477.026, 303.730 478.646 C 305.518 481.091, 305.411 481.324, 301.559 483.398 C 295.737 486.533, 296.418 490.116, 302.543 488.579 C 305.052 487.949, 305.064 487.975, 303.592 490.822 C 299.617 498.510, 287.726 505.061, 276.434 505.786 C 267.821 506.339, 261.497 504.525, 254.371 499.459 C 248.318 495.155, 246 494.972, 246 498.797 C 246 500.723, 247.168 502.714, 249.750 505.191 C 263.740 518.610, 288.775 517.645, 304.338 503.087 C 310.986 496.869, 313.400 491.946, 313.451 484.500 C 313.509 476.105, 309.983 470.167, 302.818 466.597 C 296.386 463.391, 292.456 463.379, 283.578 466.537 M 339 465.594 C 331.103 469.015, 326.680 475.652, 326.672 484.090 C 326.665 491.415, 329.713 497.657, 336.098 503.398 C 350.663 516.493, 372.276 518.475, 387.359 508.097 C 392.281 504.710, 395.503 499.311, 393.814 497.276 C 392.276 495.423, 391.370 495.649, 386.274 499.155 C 372.887 508.366, 356.975 508.284, 344.072 498.937 C 340.459 496.320, 336.015 490.765, 336.004 488.853 C 336.002 488.496, 337.415 488.271, 339.143 488.353 C 343.745 488.568, 343.711 486.466, 339.069 483.815 C 334.554 481.237, 334.478 481.096, 336.270 478.646 C 337.454 477.026, 337.797 477.017, 341.401 478.523 C 344.285 479.728, 345.547 479.848, 346.382 478.999 C 347.210 478.156, 346.780 477.237, 344.724 475.456 L 341.948 473.051 344.380 472.441 C 345.797 472.085, 350.835 472.993, 356.457 474.617 C 365.505 477.230, 366.358 477.313, 370.211 475.951 C 375.118 474.218, 379.040 469.640, 377.197 467.797 C 376.266 466.866, 375.258 466.867, 372.678 467.799 C 367.781 469.570, 364.165 469.285, 356.193 466.500 C 348.028 463.647, 343.986 463.434, 339 465.594 M 438.495 505.840 C 436.842 506.848, 432.897 510.882, 429.728 514.804 C 426.559 518.727, 421.946 523.120, 419.477 524.566 C 416.427 526.354, 414.818 528.046, 414.457 529.848 C 414.165 531.307, 413.092 536.037, 412.073 540.360 L 410.220 548.221 414.360 547.583 C 427.940 545.490, 440.983 538.029, 447.470 528.643 C 450.972 523.576, 451.486 522.087, 451.829 516.013 C 452.187 509.693, 452.008 508.917, 449.655 506.564 C 446.603 503.513, 442.724 503.261, 438.495 505.840" stroke="none" fill="#000000" fill-rule="evenodd"/>
</svg>