<svg xmlns="http://www.w3.org/2000/svg" width="640" height="640" viewBox="0 0 640 640" version="1.1">
	<path d="M 311 36.127 C 297.459 38.426, 291.183 38.955, 276 39.077 L 257.500 39.226 241.500 44.498 C 222.073 50.899, 216.484 53.333, 203.254 61.154 C 191.434 68.140, 182.351 71.290, 166.167 74.014 C 159.831 75.081, 154.163 76.475, 153.573 77.113 C 152.777 77.973, 153.062 78.137, 154.680 77.748 C 155.879 77.460, 158.354 77.540, 160.180 77.927 L 163.500 78.629 159.500 79.951 C 151.479 82.602, 136 91.900, 136 94.067 C 136 94.419, 138.348 94.098, 141.218 93.354 C 144.088 92.609, 147.575 92.026, 148.968 92.059 C 151.313 92.113, 151.361 92.206, 149.628 93.309 C 148.599 93.964, 145.101 96.184, 141.856 98.242 C 138.272 100.516, 135.545 103.067, 134.909 104.742 C 134.333 106.259, 131.407 110.763, 128.407 114.750 C 125.407 118.738, 123.488 122, 124.143 122 C 124.798 122, 124.996 122.338, 124.583 122.750 C 124.171 123.163, 123.375 123.500, 122.816 123.500 C 121.795 123.500, 118.517 131.850, 119.250 132.584 C 119.465 132.798, 121.409 131.687, 123.570 130.113 C 127.517 127.240, 132 125.317, 132 126.498 C 132 128.476, 124.274 142.613, 119.552 149.277 C 115.956 154.352, 113.307 159.470, 111.930 164.005 C 109.085 173.371, 109.987 174.888, 113.860 167.250 C 115.603 163.813, 117.418 161, 117.894 161 C 118.370 161, 118.136 164.488, 117.374 168.750 C 116.327 174.606, 114.410 179.585, 109.532 189.121 C 105.981 196.062, 103.355 202.022, 103.697 202.364 C 104.040 202.706, 105.858 201.189, 107.738 198.993 C 109.618 196.797, 111.489 195, 111.895 195 C 112.302 195, 111.084 198.124, 109.188 201.943 C 106.850 206.654, 105.992 209.466, 106.520 210.693 C 106.947 211.687, 107.190 213.576, 107.059 214.892 C 106.732 218.158, 109.043 226.092, 110.125 225.423 C 110.606 225.125, 111.007 223.671, 111.015 222.191 C 111.024 220.711, 111.412 218.898, 111.878 218.163 C 113.085 216.259, 113.937 231.645, 112.844 235.604 C 112.140 238.151, 110.039 240.080, 102.478 245.119 C 94.833 250.213, 91.544 253.249, 85.508 260.779 C 74.266 274.804, 72.517 283.559, 78.565 295.533 C 80.826 300.009, 80.994 301.060, 80.078 305.033 C 79.512 307.490, 79.038 314.314, 79.024 320.198 C 79.005 328.815, 79.477 332.415, 81.452 338.698 C 82.801 342.989, 85.110 352.800, 86.584 360.500 C 88.232 369.109, 90.379 376.888, 92.160 380.701 C 95.247 387.311, 104.866 400.967, 106.450 400.988 C 106.972 400.994, 106.860 400.460, 106.200 399.800 C 104.003 397.603, 104.963 396.617, 107.250 398.721 C 112.624 403.664, 116.206 404.992, 124.165 404.996 L 131.831 405 137.665 411.647 C 148.181 423.628, 154.678 427.955, 166.714 430.994 C 170.504 431.951, 170.845 432.281, 170.098 434.279 C 169.641 435.501, 168.733 439.601, 168.080 443.390 C 166.572 452.140, 162.159 461.897, 156.384 469.250 C 152.379 474.349, 152.107 475, 153.983 475 C 156.655 475, 161.408 472.585, 166.296 468.742 C 168.384 467.101, 170.295 465.961, 170.542 466.209 C 171.415 467.082, 160.398 480.607, 152.136 488.806 C 147.536 493.371, 143.984 497.317, 144.243 497.576 C 144.501 497.834, 148.265 496.226, 152.606 494.002 C 162.742 488.809, 163.474 490.435, 155.151 499.657 C 145.497 510.354, 143.637 514.570, 143.165 526.833 C 142.896 533.821, 143.142 537.542, 143.925 538.325 C 145.449 539.849, 146.964 537.553, 146.985 533.687 C 147.003 530.259, 151.559 520.688, 154.325 518.265 C 156.266 516.564, 156.311 516.572, 155.555 518.500 C 151.120 529.811, 150.636 531.897, 150.682 539.500 C 150.742 549.608, 151.748 555.150, 153.817 556.771 C 155.220 557.870, 155.740 557.465, 157.674 553.771 L 159.910 549.500 159.955 552.692 C 159.980 554.447, 158.389 561.197, 156.420 567.692 C 152.606 580.271, 150.569 597, 152.852 597 C 153.483 597, 154 596.495, 154 595.878 C 154 595.048, 154.353 595.048, 155.352 595.877 C 156.343 596.699, 157.547 596.705, 159.860 595.899 C 162.670 594.920, 163.232 595.057, 164.975 597.149 C 166.052 598.442, 166.948 598.975, 166.967 598.333 C 166.985 597.692, 166.438 596.950, 165.750 596.685 C 165.063 596.420, 165.539 596.256, 166.810 596.319 C 168.508 596.404, 168.996 596.906, 168.653 598.217 C 168.397 599.198, 168.595 600, 169.094 600 C 169.592 600, 170.003 597.413, 170.008 594.250 C 170.015 588.810, 170.840 580.756, 172.902 566 C 173.401 562.425, 175.428 555.354, 177.405 550.288 C 179.382 545.221, 181 540.608, 181 540.038 C 181 538.195, 178.585 539.008, 175.026 542.051 L 171.552 545.020 170.704 542.760 C 169.594 539.799, 171.434 524.395, 173.938 515.684 C 176.374 507.207, 175.083 507.265, 169.250 515.894 C 164.293 523.228, 163.760 522.124, 167.967 513.233 C 169.995 508.944, 173.784 503.971, 179.966 497.482 C 184.935 492.266, 189 487.324, 189 486.499 C 189 484.607, 187.914 484.598, 185.441 486.468 C 182.026 489.051, 182.051 488.126, 185.534 482.950 C 188.380 478.721, 196 458.385, 196 455.018 C 196 452.777, 194.329 454.200, 193.158 457.440 C 191.744 461.349, 184.862 469.357, 178.768 474.184 L 174.654 477.442 179.238 468.971 C 184.004 460.164, 187.325 450.716, 188.367 443 L 188.975 438.500 186.958 442.500 L 184.941 446.500 185.616 440.507 C 186.248 434.901, 186.179 434.606, 184.561 435.950 C 182.979 437.262, 182.859 437.132, 183.165 434.443 C 183.476 431.711, 184.038 431.343, 191 429.311 C 199.992 426.687, 204.011 426.517, 210.627 428.482 C 217.224 430.441, 219.616 433.219, 221.426 441.025 C 222.764 446.794, 222.763 448.269, 221.417 454.501 C 219.861 461.710, 218.016 471.880, 218.006 473.309 C 217.978 477.137, 224.879 464.525, 228.571 454 L 230.851 447.500 230.926 454.589 C 230.988 460.520, 230.267 463.786, 226.513 474.589 C 221.535 488.912, 220.672 493.724, 224.109 488 C 225.264 486.075, 227.099 483.532, 228.186 482.349 C 229.273 481.166, 232.151 476.236, 234.581 471.394 C 237.012 466.551, 239 463.306, 239 464.181 C 239 465.057, 237.385 472.012, 235.410 479.637 C 232.262 491.794, 231.880 494.546, 232.303 502 C 232.568 506.675, 233.388 511.850, 234.124 513.500 C 235.403 516.364, 235.487 516.115, 235.997 508 C 236.474 500.403, 236.614 499.925, 237.318 503.500 C 239.143 512.769, 240.257 516.749, 242.216 521 L 244.291 525.500 246.070 510.648 C 248.086 493.820, 249.327 488.016, 251.983 483 L 253.835 479.500 253.294 486 C 252.669 493.497, 253.705 493.167, 256.435 485 C 259.162 476.845, 264.687 466.667, 268.168 463.388 L 271.234 460.500 269.038 464.864 C 267.831 467.265, 266.639 471.468, 266.391 474.204 L 265.938 479.180 268.719 477.174 C 270.249 476.070, 273.279 473.330, 275.453 471.084 C 277.627 468.838, 279.964 467, 280.646 467 C 281.329 467, 282.684 465.650, 283.659 464 C 285.695 460.553, 287.455 459.990, 286.468 463.102 C 281.806 477.791, 280.856 487.422, 283.144 496.807 C 285.590 506.838, 287.961 505.585, 287.985 494.250 C 287.993 490.262, 288.391 487, 288.868 487 C 289.346 487, 289.958 490.262, 290.229 494.250 C 290.557 499.090, 291.789 504.243, 293.933 509.750 C 297.666 519.337, 299.594 520.568, 298.634 512.750 C 297.192 501.017, 296.813 489.467, 297.919 491 C 299.416 493.073, 305.627 512.508, 306.548 518 L 307.303 522.500 308.590 519.500 C 309.720 516.865, 309.804 517.583, 309.278 525.408 C 308.879 531.355, 309.020 534.106, 309.701 533.685 C 310.374 533.269, 310.474 534.408, 309.995 537.027 C 309.595 539.212, 309.598 541, 310 541 C 310.836 541, 316.585 528.502, 317.588 524.504 C 318.293 521.696, 319.542 522.171, 320.203 525.500 C 320.422 526.600, 321.398 523, 322.372 517.500 C 325.166 501.720, 325.180 501.697, 328.016 508.084 C 329.901 512.330, 330.497 513.022, 330.775 511.288 C 330.970 510.072, 329.975 507.108, 328.565 504.701 C 326.832 501.744, 325.640 497.599, 324.887 491.913 C 323.350 480.307, 322.398 479.363, 321.751 488.801 C 321.101 498.279, 319.080 503.434, 319.030 495.739 C 319.007 492.143, 317.776 488.389, 314 480.403 C 309.209 470.270, 308.999 469.466, 308.980 461.164 C 308.960 452.681, 307.799 442.053, 306.551 438.928 C 306.128 437.870, 306.725 436.991, 308.374 436.239 C 310.622 435.215, 311.253 435.574, 315.961 440.553 C 320.659 445.520, 323.099 449.815, 328.853 463.250 C 329.972 465.863, 331.411 468, 332.051 468 C 332.691 468, 333.001 467.438, 332.740 466.750 C 332.479 466.063, 331.453 461.731, 330.461 457.123 C 329.133 450.959, 327.406 446.668, 323.924 440.873 C 321.321 436.543, 319.561 433, 320.011 433 C 321.246 433, 331.126 444.667, 335.838 451.688 C 340.504 458.642, 342.541 460.553, 341.019 456.550 C 338.205 449.149, 329.358 435.453, 323.322 429.153 L 318.872 424.509 323.003 420.657 C 326.808 417.107, 327.009 416.668, 325.566 415.073 C 323.477 412.764, 323.592 412, 326.031 412 C 327.149 412, 328.364 411.212, 328.731 410.250 C 329.779 407.508, 335.259 402.371, 337.821 401.730 C 341.182 400.890, 349.494 403.629, 357.174 408.108 C 364.447 412.349, 368.141 413.351, 363.224 409.750 C 354.902 403.655, 350.024 399.492, 350.873 399.209 C 352.604 398.632, 364.894 404.807, 372.552 410.101 C 376.718 412.981, 381.945 417.399, 384.166 419.919 C 390.848 427.497, 394.566 436.699, 388.732 431.218 C 384.825 427.548, 378.981 425.738, 364.250 423.638 C 359.114 422.906, 360.271 425.049, 368.250 431.049 C 375.405 436.429, 387.448 447.885, 386.717 448.616 C 386.510 448.823, 383.763 447.596, 380.611 445.889 C 374.726 442.701, 372.493 442.641, 375.225 445.744 C 377.793 448.660, 381.924 457.612, 383.508 463.693 C 385.635 471.859, 385.384 472.204, 381.834 466 C 378.462 460.105, 366.804 448.087, 366.205 449.886 C 366.006 450.483, 366.718 452.215, 367.787 453.735 C 372.956 461.086, 376.093 471.821, 375.900 481.500 C 375.794 486.850, 374.292 493.444, 374.100 489.407 C 373.905 485.320, 370.205 476.415, 366.243 470.500 C 362.117 464.339, 357.380 459.287, 356.528 460.139 C 356.264 460.403, 356.953 463.002, 358.060 465.915 C 362.780 478.338, 365.194 498.855, 363.007 507.970 C 362.309 510.880, 359.058 518.863, 355.783 525.711 C 352.507 532.558, 350.134 538.462, 350.509 538.830 C 350.885 539.199, 355.086 535.420, 359.846 530.433 C 371.269 518.465, 380.023 503.964, 383.349 491.500 L 385.751 482.500 386.506 487.364 C 387.520 493.892, 386.502 502.652, 383.989 509.027 C 382.855 511.905, 382.213 514.539, 382.563 514.880 C 383.586 515.876, 389.156 508.851, 393.856 500.637 C 396.728 495.618, 399.031 489.724, 400.642 483.270 C 402.720 474.948, 404.001 472.140, 409.282 464.324 C 412.692 459.278, 415.629 455.296, 415.809 455.476 C 415.989 455.656, 415.411 458.210, 414.524 461.151 C 412.837 466.748, 409.914 484.224, 410.554 484.879 C 410.758 485.088, 411.444 483.963, 412.078 482.379 C 418.180 467.143, 431.397 446.588, 443.510 433.500 L 447.212 429.500 446.614 438.070 C 445.969 447.311, 444.091 453.796, 439.103 464.004 L 435.929 470.500 439.966 466.120 C 448.280 457.098, 452.950 443.040, 452.983 426.934 C 452.992 422.222, 453.503 415.697, 454.119 412.434 C 454.734 409.170, 455.555 403.125, 455.943 399 L 456.648 391.500 459.845 398.274 C 463.285 405.564, 466.972 419.320, 467.008 425 C 467.021 426.925, 467.406 429.092, 467.865 429.815 C 469.506 432.403, 471.502 418.808, 471.435 405.500 C 471.378 394.096, 471.020 391.395, 468.524 383.500 C 466.959 378.550, 465.477 372.700, 465.232 370.500 L 464.786 366.500 467.531 370.500 C 469.041 372.700, 472.337 376.975, 474.856 380 C 477.375 383.025, 479.563 385.688, 479.718 385.917 C 479.873 386.146, 480.237 386.097, 480.526 385.807 C 480.815 385.518, 479.730 381.955, 478.114 377.891 C 475.353 370.943, 472.615 357.994, 473.911 358.005 C 474.235 358.008, 476.723 361.270, 479.441 365.255 C 485.419 374.021, 492.140 382.193, 492.816 381.517 C 493.087 381.246, 491.266 377.951, 488.768 374.195 C 483.248 365.894, 480.556 360.708, 479.193 355.750 C 477.732 350.438, 479.200 351.103, 482.505 357.250 C 487.344 366.251, 499.604 382.849, 502.141 383.833 C 503.436 384.336, 503.172 376.489, 501.785 373.297 C 501.117 371.759, 499.542 368.821, 498.285 366.770 C 495.176 361.695, 495.414 361.077, 499.136 364.563 L 502.272 367.500 501.653 362.738 C 501.313 360.119, 500.168 356.181, 499.108 353.988 C 498.049 351.795, 497.449 350, 497.776 350 C 498.104 350, 500.538 351.827, 503.186 354.060 C 505.834 356.292, 508 357.785, 508 357.378 C 508 356.970, 506.200 352.246, 504 346.881 C 501.800 341.516, 500 335.873, 500 334.341 L 500 331.555 501.604 333.845 C 502.486 335.104, 503.784 335.913, 504.489 335.643 C 507.196 334.604, 511.017 340.526, 513.483 349.583 C 516.614 361.078, 523.537 381.195, 525.970 385.865 C 527.012 387.864, 529.020 390.718, 530.432 392.206 C 533.524 395.465, 533.604 396, 531 396 C 528.483 396, 528.487 396.055, 531.507 402.013 C 532.885 404.734, 534.918 409.331, 536.023 412.230 L 538.032 417.500 535.766 414.918 C 534.520 413.497, 532.012 410.185, 530.193 407.558 C 528.374 404.930, 526.652 403.015, 526.365 403.302 C 526.078 403.589, 527.397 408.701, 529.297 414.662 C 532.986 426.239, 534.376 433, 533.069 433 C 532.626 433, 532.014 431.138, 531.708 428.862 C 531.403 426.587, 530.556 424.130, 529.827 423.403 C 528.725 422.305, 528.484 424.657, 528.405 437.291 C 528.329 449.544, 527.891 454.039, 526.153 460.419 C 524.966 464.774, 523.722 468.599, 523.388 468.919 C 523.055 469.239, 522.043 468.386, 521.141 467.024 C 518.548 463.111, 513.879 458, 512.896 458 C 512.403 458, 512 459.953, 512 462.340 C 512 468.703, 508.634 480.798, 504.680 488.640 L 501.223 495.498 501.730 485.999 C 502.325 474.850, 501.152 474.850, 498.522 486 C 496.766 493.448, 485.250 517.833, 481.048 523 L 479.015 525.500 479.635 522 C 479.975 520.075, 480.872 516.043, 481.627 513.040 C 482.382 510.037, 483 502.682, 483 496.695 C 483 488.194, 483.493 484.244, 485.250 478.655 L 487.500 471.500 487.802 476.750 C 488.108 482.054, 489.355 483.609, 490.474 480.081 C 490.809 479.026, 493.618 473.963, 496.716 468.831 C 504.429 456.055, 510.448 443.046, 513.064 433.500 C 517.890 415.888, 517.945 411.346, 513.494 397.982 C 508.915 384.233, 508.190 384.692, 508.775 400.966 C 509.124 410.667, 508.958 415.092, 508.261 414.661 C 507.694 414.311, 506.938 412.107, 506.580 409.762 C 505.766 404.429, 500.802 394.603, 498.713 394.191 C 497.337 393.919, 497.378 394.641, 499.046 400.150 C 501.834 409.361, 502.592 426.652, 500.615 435.935 C 498.385 446.399, 497 447.156, 497 437.910 C 497 433.791, 496.308 427.738, 495.461 424.460 C 493.973 418.695, 488.591 406, 487.636 406 C 487.377 406, 487.241 412.638, 487.333 420.750 C 487.493 434.863, 487.355 435.975, 484.152 446.500 C 481.045 456.708, 474.039 472.070, 470.440 476.571 C 468.922 478.468, 468.904 478.467, 469.375 476.500 C 469.638 475.400, 470.134 472.475, 470.477 470 C 470.820 467.525, 471.775 461.330, 472.600 456.234 C 474.076 447.107, 473.872 444.343, 471.818 445.613 C 469.340 447.144, 463.640 464.046, 460.895 478 C 460.300 481.025, 459.568 484.175, 459.269 485 C 458.446 487.268, 457.240 482.522, 456.981 476 C 456.861 472.975, 456.441 469.150, 456.048 467.500 L 455.333 464.500 454.533 468.369 C 453.405 473.825, 454.412 482.408, 457.997 497.869 C 459.701 505.221, 460.953 511.380, 460.779 511.554 C 459.882 512.451, 451.571 491.720, 449.811 484.194 C 447.014 472.237, 446.955 472.085, 446.050 474.500 C 445.637 475.600, 444.528 480.775, 443.585 486 C 442.642 491.225, 441.602 496.625, 441.273 498 C 440.678 500.490, 440.673 500.488, 439.956 497.500 C 439.560 495.850, 439.135 492.700, 439.011 490.500 L 438.786 486.500 437.900 491 C 435.359 503.905, 433.704 510.045, 431.464 514.879 C 429.080 520.025, 419.117 532.834, 413.480 538 C 411.049 540.227, 410.817 540.282, 411.348 538.500 C 413.052 532.781, 415.028 522.694, 414.539 522.205 C 414.231 521.898, 412.710 522.862, 411.159 524.348 L 408.339 527.049 408.712 523.775 C 409.242 519.128, 411.088 507.826, 411.656 505.750 C 411.919 504.787, 411.709 504, 411.189 504 C 410.669 504, 409.516 506.894, 408.628 510.430 C 406.126 520.390, 401.110 533.536, 398.101 538.015 C 395.556 541.804, 384.428 551.918, 382.741 551.975 C 382.324 551.989, 383.307 549.638, 384.924 546.750 C 388.126 541.036, 393 528.668, 393 526.258 C 393 524.096, 391.018 525.912, 383.997 534.504 C 380.818 538.395, 376.480 542.733, 374.358 544.144 C 370.252 546.876, 351.013 557.376, 334.500 565.899 L 324.500 571.061 334.269 561.530 C 339.642 556.289, 343.742 552, 343.380 552 C 343.019 552, 339.748 554.404, 336.111 557.342 C 327.478 564.318, 326.124 565.039, 328.851 561.209 C 333.180 555.130, 340.933 537.418, 342.949 529 C 345.319 519.111, 345.545 513.697, 343.655 512.129 C 342.580 511.236, 341.779 512.363, 339.656 517.757 C 335.549 528.185, 324.783 546.386, 318.462 553.586 C 315.323 557.162, 312.512 559.846, 312.217 559.550 C 311.921 559.254, 312.539 558.044, 313.589 556.861 C 315.477 554.735, 315.476 554.722, 313.489 555.762 C 312.383 556.341, 310.583 557.806, 309.489 559.017 C 304.891 564.108, 291.445 573.779, 290.407 572.741 C 290.176 572.509, 291.256 570.560, 292.808 568.410 C 296.410 563.418, 303.099 552, 302.421 552 C 301.189 552, 290.788 559.219, 283.461 565.160 C 272.695 573.889, 271.731 574.305, 277.023 567.940 C 285.736 557.461, 292.962 547, 291.487 547 C 287.621 547, 265.140 567.740, 240.005 594.495 C 238.579 596.013, 238.359 596.909, 239.140 598.015 C 240.006 599.241, 240.088 599.189, 239.611 597.712 C 238.693 594.868, 241.745 594.465, 243.928 597.142 C 245.660 599.266, 245.919 599.327, 246.530 597.756 C 246.904 596.796, 247.651 596.284, 248.191 596.618 C 248.731 596.952, 250.596 595.923, 252.336 594.331 C 260.005 587.318, 259.703 587.384, 259.610 592.734 C 259.558 595.723, 258.963 597.935, 258.015 598.668 C 257.183 599.311, 256.831 600.164, 257.232 600.565 C 257.632 600.966, 261.631 597.389, 266.118 592.618 C 270.604 587.846, 274.464 584.131, 274.696 584.363 C 274.928 584.594, 274.394 586.515, 273.510 588.630 C 271.077 594.452, 270.157 599.529, 271.198 601.388 C 271.706 602.298, 272.435 602.849, 272.816 602.614 C 273.197 602.379, 273.506 603.382, 273.504 604.843 C 273.502 606.304, 273.950 607.500, 274.500 607.500 C 275.050 607.500, 275.370 606.487, 275.212 605.250 C 274.844 602.372, 276.584 602.301, 277.333 605.164 C 277.804 606.965, 278.152 607.118, 279.406 606.078 C 281.124 604.652, 283 605.425, 283 607.559 C 283 609.324, 283.001 609.324, 287.067 607.614 C 290.100 606.339, 290.497 606.392, 292.026 608.281 C 293.232 609.770, 294.211 610.109, 295.594 609.517 C 296.642 609.067, 298.305 608.542, 299.289 608.350 C 302.527 607.718, 309.422 603.848, 314 600.094 C 319.285 595.760, 323.006 593.194, 328.500 590.096 C 332.375 587.910, 332.329 587.997, 327.028 592.864 C 324.018 595.628, 321.852 598.186, 322.215 598.548 C 323.100 599.433, 337.712 594.569, 347 590.296 C 351.125 588.399, 358.025 585.548, 362.333 583.962 C 370.818 580.839, 381.946 574.975, 383.933 572.580 C 384.615 571.759, 384.882 570.618, 384.527 570.044 C 384.172 569.470, 384.227 568.442, 384.648 567.760 C 385.177 566.905, 385.583 567.211, 385.957 568.748 C 386.481 570.896, 386.765 570.802, 394 566.083 C 398.125 563.393, 402.625 560.871, 404 560.481 C 406.354 559.811, 406.296 559.988, 403 563.504 C 401.075 565.558, 396.951 569.383, 393.836 572.005 C 389.980 575.249, 388.497 577.097, 389.192 577.792 C 389.888 578.488, 389.301 579.380, 387.357 580.587 C 378.634 586.001, 374.069 594.341, 382.316 589.796 C 384.484 588.601, 385.032 588.445, 388.091 588.152 C 390.355 587.936, 398.755 579.749, 398.252 578.249 C 397.973 577.417, 398.418 577.223, 399.580 577.669 C 400.772 578.127, 401.098 577.968, 400.605 577.170 C 400.192 576.502, 400.449 576, 401.205 576 C 402.795 576, 409.130 569.449, 418.372 558.250 C 428.368 546.136, 428.965 547.159, 421.067 562.867 C 416.388 572.174, 415.887 574.796, 419.610 570.500 L 422.209 567.500 420.443 570.500 C 419.471 572.150, 416.724 576.053, 414.338 579.174 C 409.629 585.333, 409.214 586.239, 411.500 585.362 C 412.325 585.045, 413 584.201, 413 583.487 C 413 582.746, 413.752 582.379, 414.750 582.634 C 415.712 582.880, 418.955 581.600, 421.954 579.790 C 426.086 577.298, 430.216 573.023, 438.982 562.164 C 449.773 548.798, 454 544.489, 454 546.857 C 454 547.915, 457.855 547.213, 459.633 545.830 C 461.103 544.687, 462.064 550.536, 460.640 551.960 C 460.086 552.514, 459.832 553.166, 460.076 553.409 C 460.319 553.652, 464.339 551.111, 469.009 547.762 C 478.526 540.938, 478.168 541.828, 466.562 553.853 C 457.710 563.024, 458.771 564.266, 469 556.705 C 478.429 549.735, 486.157 540.858, 493.500 528.562 C 497.720 521.496, 500.637 517.511, 500.844 518.529 C 501.286 520.694, 497.481 531.237, 494.252 536.795 C 491.169 542.103, 492.013 543.320, 496.078 539.427 C 503.781 532.052, 508.836 520.765, 514.522 498.250 C 516.084 492.063, 517.695 487, 518.102 487 C 518.780 487, 519.629 493.466, 520.269 503.500 L 520.524 507.500 527.316 500.500 C 531.052 496.650, 534.501 492.544, 534.981 491.376 C 535.462 490.208, 536.376 483.683, 537.015 476.876 C 538.406 462.034, 540.240 455.307, 539.435 468 C 539.138 472.675, 538.647 477.850, 538.342 479.500 C 537.962 481.563, 538.114 482.188, 538.830 481.500 C 540.270 480.116, 545.130 460.020, 544.336 458.735 C 543.981 458.161, 544.159 457.980, 544.732 458.334 C 545.304 458.688, 546.037 457.970, 546.361 456.739 C 546.684 455.507, 546.510 454.350, 545.974 454.167 C 545.439 453.983, 545 453.383, 545 452.833 C 545 452.283, 545.563 452.024, 546.250 452.257 C 546.979 452.504, 548.007 451.183, 548.716 449.090 L 549.932 445.500 549.667 449.250 C 549.521 451.313, 549.761 453, 550.201 453 C 550.894 453, 551.331 451.676, 551.195 449.981 C 551.173 449.695, 552.919 449.630, 555.077 449.836 C 558.791 450.190, 560.336 448.943, 557.984 447.490 C 556.352 446.481, 557.992 444.863, 560 445.500 C 561.007 445.820, 562.133 445.593, 562.502 444.997 C 563.501 443.380, 561.081 441, 558.437 441 C 554.557 441, 554.796 439.296, 558.770 438.628 C 562.009 438.083, 562.791 438.357, 564.706 440.711 C 567.288 443.885, 567.374 443.831, 568.765 438.168 C 569.592 434.799, 569.519 433.092, 568.433 430.495 C 566.820 426.634, 564.538 425.807, 561 427.802 C 558.801 429.042, 558.708 429.036, 560.234 427.757 C 561.188 426.957, 561.720 426.053, 561.415 425.749 C 561.111 425.444, 561.411 424.315, 562.083 423.239 C 563.141 421.544, 562.701 420.433, 558.777 414.892 C 556.288 411.376, 553.508 407.037, 552.600 405.250 C 551.148 402.392, 551.133 402, 552.474 402 C 553.313 402, 554 401.295, 554 400.433 C 554 399.357, 553.414 399.051, 552.132 399.458 C 550.833 399.870, 549.759 399.281, 548.609 397.526 C 547.346 395.598, 547.267 395, 548.277 395 C 549.005 395, 550.028 395.399, 550.550 395.888 C 551.073 396.376, 552.625 397.107, 554 397.512 C 555.775 398.035, 555.054 397.125, 551.515 394.374 C 548.774 392.244, 544.350 388.327, 541.685 385.670 C 536.644 380.646, 531.002 370.287, 531.001 366.054 C 531 363.977, 531.460 364.334, 534.051 368.420 C 535.729 371.066, 537.340 372.993, 537.631 372.703 C 537.921 372.412, 536.360 367.523, 534.162 361.837 C 531.964 356.152, 529.222 346.424, 528.068 340.221 C 526.035 329.295, 525.074 326.255, 519.615 313.500 C 515.502 303.889, 515.742 303.148, 525.415 295.595 C 531.387 290.931, 535.194 286.972, 538.528 281.958 C 541.112 278.072, 543.419 275.086, 543.656 275.322 C 543.892 275.559, 543.177 278.144, 542.067 281.067 C 540.956 283.989, 540.193 286.526, 540.370 286.703 C 541.380 287.713, 550.269 273.568, 556.210 261.500 C 567.456 238.653, 567.959 237.810, 568.035 241.691 C 568.084 244.184, 570.581 248.486, 571.303 247.320 C 571.626 246.797, 572.876 243.735, 574.080 240.516 C 575.787 235.955, 576.023 234.266, 575.150 232.868 C 574.218 231.376, 574.306 231.180, 575.673 231.705 C 577.084 232.246, 577.227 231.784, 576.683 228.432 L 576.049 224.529 578.605 227.514 C 580.010 229.157, 580.925 229.742, 580.636 228.815 C 580.348 227.888, 580.614 226.962, 581.226 226.758 C 583.974 225.842, 574.383 199.964, 567.945 190.923 C 564.350 185.875, 566.449 186.549, 572.394 192.353 C 577.733 197.566, 579.034 198.082, 577.148 194.236 C 576.680 193.281, 575.217 190.327, 573.898 187.671 C 571.416 182.672, 563.085 174, 560.765 174 C 560.039 174, 558.711 173.213, 557.814 172.250 C 556.917 171.287, 554.104 168.975, 551.563 167.112 C 546.184 163.166, 546.095 161.944, 551.417 165.083 C 557.199 168.495, 556.606 166.710, 550.356 161.891 C 542.456 155.800, 535.277 146.845, 531.297 138.118 C 529.445 134.058, 528.090 130.577, 528.285 130.381 C 528.480 130.186, 530.156 132.722, 532.010 136.017 C 535.444 142.122, 539.538 146.796, 540.558 145.775 C 540.870 145.464, 538.420 141, 535.114 135.855 C 529.829 127.629, 528.149 125.858, 521.195 121.177 C 506.998 111.622, 503.456 107.178, 511 108.384 C 513.200 108.736, 514.986 108.681, 514.969 108.262 C 514.934 107.388, 506.674 101, 505.581 101 C 505.183 101, 504.102 100.244, 503.179 99.319 C 501.607 97.745, 501.643 97.676, 503.750 98.226 C 504.988 98.549, 506 98.396, 506 97.887 C 506 97.378, 507.238 97.225, 508.750 97.547 L 511.500 98.133 508.500 95.571 C 505.138 92.701, 503.505 92.267, 504.349 94.468 C 504.659 95.275, 504.482 96.202, 503.956 96.527 C 503.430 96.852, 503 96.672, 503 96.126 C 503 95.581, 502.100 94.849, 501 94.500 C 499.900 94.151, 499 93.017, 499 91.979 C 499 89.943, 494.198 87.426, 484.460 84.356 C 481.457 83.409, 479 82.351, 479 82.004 C 479 81.658, 480.350 80.081, 482 78.500 C 483.650 76.919, 485 75.332, 485 74.972 C 485 74.315, 477.235 74.511, 464.807 75.481 C 454.360 76.296, 448.698 74.640, 439.500 68.077 C 421.168 54.997, 414.853 50.823, 410.455 48.877 C 405.612 46.735, 389.574 43.743, 382.250 43.616 C 379.913 43.575, 378 43.207, 378 42.799 C 378 42.390, 375.413 41.340, 372.250 40.466 C 369.087 39.592, 365.534 38.403, 364.353 37.824 C 363.172 37.246, 358.785 36.750, 354.603 36.723 C 350.421 36.696, 347 36.325, 347 35.898 C 347 35.088, 342.320 34.356, 333 33.709 C 329.791 33.486, 320.626 34.494, 311 36.127 M 372.828 38.493 C 375.209 39.277, 379.934 40.148, 383.328 40.428 L 389.500 40.938 384.088 39.540 C 381.111 38.772, 376.386 37.901, 373.588 37.605 L 368.500 37.067 372.828 38.493 M 315 45.464 C 310.875 46.214, 302.790 48.442, 297.033 50.414 C 283.858 54.928, 281.820 55.044, 286.234 51.029 L 289.500 48.059 284.242 48.029 C 275.897 47.983, 251.298 51.809, 242 54.600 C 237.325 56.003, 232.274 57.111, 230.776 57.062 C 228.835 56.998, 228.206 57.373, 228.587 58.367 C 228.943 59.294, 227.507 60.535, 224.311 62.064 C 221.665 63.330, 214.746 66.970, 208.936 70.152 C 201.518 74.216, 194.670 77.003, 185.936 79.515 C 179.096 81.481, 171.025 84.257, 168 85.682 C 163.173 87.957, 162.783 88.349, 164.809 88.887 C 166.079 89.224, 167.204 89.885, 167.309 90.355 C 167.414 90.825, 164.027 93.075, 159.782 95.355 C 155.537 97.635, 150.812 100.497, 149.282 101.716 L 146.500 103.932 150.750 102.510 C 153.088 101.728, 155 101.256, 155 101.461 C 155 101.666, 151.512 104.278, 147.248 107.265 C 139.650 112.589, 135.893 116, 137.628 115.999 C 138.107 115.999, 140.918 115.080, 143.873 113.957 C 146.827 112.834, 149.605 112.047, 150.045 112.208 C 150.486 112.368, 147.731 116.310, 143.923 120.967 C 140.115 125.623, 137 129.802, 137 130.253 C 137 130.703, 138.662 129.943, 140.693 128.563 C 145.646 125.197, 146.165 126.196, 141.842 130.768 C 137.568 135.288, 133.557 141.008, 134.682 140.978 C 135.132 140.966, 136.625 140.076, 138 139 C 142.760 135.277, 142.043 137.036, 135.550 145.013 C 129.844 152.023, 125 159.616, 125 161.549 C 125 161.895, 126.407 160.994, 128.126 159.548 C 129.845 158.101, 131.457 157.124, 131.709 157.376 C 131.961 157.628, 131.231 159.950, 130.087 162.537 C 128.821 165.397, 128.531 166.804, 129.345 166.128 C 130.082 165.517, 130.945 165.278, 131.264 165.597 C 132.003 166.336, 128.319 176.036, 123.078 187.147 C 118.184 197.525, 117.984 199.169, 122.122 195.032 C 123.839 193.315, 125.430 192.097, 125.658 192.325 C 125.887 192.553, 124.932 196.140, 123.537 200.296 C 120.644 208.912, 120.202 213.361, 122.745 208.250 C 123.635 206.463, 124.643 205, 124.986 205 C 125.328 205, 125.550 209.725, 125.477 215.500 C 125.405 221.275, 125.492 226, 125.670 226 C 127.211 226, 134 218.317, 134 216.573 C 134 215.367, 135.122 211.516, 136.494 208.016 C 139.354 200.716, 139.119 198.887, 136.084 204.835 C 133.970 208.980, 132 210.983, 132 208.989 C 132 208.369, 133.384 204.537, 135.075 200.474 C 136.767 196.411, 137.993 192.055, 137.800 190.793 C 137.493 188.778, 137.050 189.107, 134.148 193.500 C 131.272 197.855, 130.928 198.113, 131.481 195.500 C 131.831 193.850, 133.080 190.487, 134.256 188.026 C 136.165 184.034, 136.365 182.127, 136.112 170.303 C 135.846 157.835, 135.983 156.717, 138.434 151.363 C 139.867 148.233, 143.448 142.692, 146.391 139.048 C 149.335 135.405, 153.229 129.793, 155.044 126.576 L 158.344 120.728 155.672 122.479 C 150.927 125.588, 152.618 122.068, 159.124 115.292 C 162.492 111.785, 165.009 108.676, 164.717 108.384 C 164.425 108.092, 162.794 108.572, 161.093 109.452 C 156.406 111.876, 157.392 109.619, 162.750 105.661 C 165.362 103.732, 169.557 99.959, 172.072 97.278 C 178.629 90.287, 192 81.669, 192 84.434 C 192 84.673, 189.514 88.160, 186.476 92.184 C 181.299 99.039, 172.912 114.779, 169.922 123.250 C 169.060 125.691, 167.974 127, 166.811 127 C 165.569 127, 165.096 127.664, 165.262 129.178 C 165.436 130.768, 164.825 131.525, 163 131.980 C 160.571 132.586, 160.557 132.639, 162.500 133.860 C 163.759 134.650, 164.069 135.300, 163.338 135.612 C 161.459 136.414, 156.480 141.323, 156.728 142.128 C 156.853 142.534, 155.149 144.298, 152.940 146.048 C 150.731 147.797, 148.041 150.959, 146.962 153.074 C 144.605 157.694, 144.561 158.106, 146.500 157.362 C 148.383 156.639, 148.383 157.663, 146.500 163 C 145.675 165.338, 145 169.518, 145 172.288 C 145 177.726, 147.847 188.213, 149.111 187.432 C 150.261 186.721, 151.316 178.393, 150.611 175.586 C 150.274 174.244, 149.281 173.001, 148.404 172.823 C 147.042 172.547, 147.130 172.094, 148.999 169.722 C 151.614 166.405, 157.926 163, 161.460 163 C 162.857 163, 164 162.487, 164 161.861 C 164 161.081, 162.421 160.908, 159 161.314 C 156.250 161.639, 154 161.532, 154 161.074 C 154 159.410, 160.125 157.754, 164.472 158.244 L 168.910 158.744 166.823 154.653 C 165.675 152.403, 163.815 149.316, 162.689 147.793 C 161.563 146.270, 160.945 144.722, 161.315 144.352 C 162.727 142.940, 169.928 146.154, 172.877 149.512 C 174.561 151.431, 176.178 153, 176.469 153 C 176.761 153, 177.007 151.762, 177.015 150.250 C 177.027 148.125, 177.246 147.841, 177.980 149 C 178.837 150.353, 178.608 159.818, 177.496 169 L 177.072 172.500 179.099 170 C 180.818 167.879, 181.047 167.803, 180.610 169.500 C 180.327 170.600, 179.820 172.850, 179.484 174.500 C 178.880 177.462, 178.903 177.452, 181.279 173.741 C 184.767 168.292, 185.353 168.045, 184.696 172.302 C 183.641 179.136, 176 193.807, 176 189 C 176 186.859, 174.177 188.157, 172.919 191.196 C 171.206 195.332, 166.217 201, 164.289 201 C 163.364 201, 163.007 200.423, 163.362 199.500 C 163.747 198.495, 163.318 198, 162.058 198 C 159.779 198, 155 192.571, 155 189.982 C 155 186.583, 153.245 186.965, 151.429 190.759 C 149.482 194.829, 148.141 210.351, 149.656 211.287 C 150.147 211.591, 154.363 209.674, 159.024 207.028 C 163.686 204.382, 167.666 202.372, 167.870 202.561 C 168.073 202.751, 166.565 205.187, 164.519 207.974 C 160.583 213.335, 157.192 215.973, 144.883 223.245 C 140.693 225.720, 133.268 230.886, 128.383 234.724 C 123.497 238.563, 115.791 243.833, 111.258 246.435 C 102.704 251.345, 99.742 253.894, 104.094 252.599 C 105.417 252.205, 111.675 251.474, 118 250.974 C 132.083 249.861, 134.293 249.231, 141.667 244.234 C 150.736 238.088, 155.781 235.870, 161.878 235.347 C 167.106 234.898, 167.364 234.974, 165.559 236.432 C 164.491 237.294, 162.916 238.064, 162.059 238.142 C 161.201 238.220, 162.300 238.557, 164.500 238.892 C 169.519 239.655, 169.758 241.881, 165 243.548 L 161.500 244.774 165.922 245.137 C 172.061 245.641, 172.309 247.681, 166.340 248.576 C 161.960 249.233, 161.766 249.374, 164.030 250.258 C 166.430 251.195, 166.387 251.256, 162.500 252.402 L 158.500 253.582 163.250 254.921 C 168.147 256.301, 169.607 258, 165.896 258 C 163.945 258, 164.016 258.255, 166.882 261.518 C 168.581 263.453, 170.276 266.253, 170.650 267.740 C 171.023 269.227, 172.865 271.893, 174.743 273.665 C 178.152 276.879, 178.157 276.900, 177.829 284.942 C 177.648 289.373, 177.151 292.999, 176.725 292.999 C 176.299 293, 175.488 294.238, 174.923 295.750 C 172.674 301.773, 169.527 307.469, 166.619 310.781 L 163.561 314.264 168.530 318.612 C 172.440 322.032, 173.068 322.963, 171.473 322.979 C 169.173 323.003, 165.137 320.478, 163.193 317.800 C 162.475 316.810, 161.437 316, 160.888 316 C 158.720 316, 151.001 320.123, 151.011 321.275 C 151.017 321.949, 153.297 324.975, 156.077 328 L 161.132 333.500 157.969 328.680 C 156.230 326.029, 155.118 323.554, 155.498 323.180 C 156.419 322.273, 167 333.681, 167 335.582 C 167 336.760, 166.584 336.848, 165 336 C 162.280 334.544, 162.480 335.443, 165.966 340.337 C 172.439 349.425, 173.316 356.975, 166.967 348.959 C 162.833 343.739, 161.954 344.658, 165.258 350.745 C 168.239 356.234, 173 368.533, 173 370.742 C 173 373.276, 170.344 370.388, 165.970 363.098 C 163.792 359.469, 162.008 356.741, 162.005 357.035 C 161.993 358.276, 166.306 369.680, 168.171 373.335 C 169.455 375.851, 170.462 376.871, 170.925 376.122 C 171.430 375.305, 173.976 376.458, 179.200 379.867 C 183.350 382.577, 187.781 385.348, 189.047 386.025 L 191.349 387.257 189.175 383.572 C 185.642 377.584, 186.632 377.476, 193.033 383.151 C 205.109 393.859, 211.538 397.658, 204.616 389.997 C 202.627 387.796, 201 385.771, 201 385.497 C 201 383.773, 204.573 385.795, 210.825 391.057 C 217.776 396.908, 218.349 397.178, 227.650 398.979 C 239.380 401.251, 245.353 400.548, 256.157 395.625 C 260.224 393.771, 266.799 391.083, 270.768 389.652 C 274.737 388.220, 279.731 386.158, 281.866 385.068 L 285.747 383.088 290.624 386.069 L 295.500 389.050 291.750 385.669 C 287.481 381.820, 287.173 381, 290 381 C 291.100 381, 291.887 380.438, 291.750 379.750 C 291.402 378.011, 296.012 377.657, 301.113 379.031 C 307.036 380.625, 312 385.760, 312 390.291 C 312 396.975, 303.654 411.065, 296.719 416.089 C 287.211 422.976, 272.285 423.962, 263.182 418.304 C 260.283 416.502, 258.357 415.766, 258.669 416.580 C 259.627 419.076, 257.836 418.120, 252.897 413.500 C 247.589 408.536, 247.709 408.567, 239.775 410.034 C 234.580 410.994, 224.722 410.212, 218.625 408.356 C 217.286 407.949, 216.973 408.147, 217.530 409.049 C 218.936 411.324, 212.030 409.223, 203 404.630 C 181.345 393.613, 172.308 389.194, 170 388.493 C 167.577 387.758, 167.554 387.794, 169.250 389.696 C 171.476 392.191, 171.476 393.104, 169.250 392.323 C 168.287 391.986, 169.506 393.800, 171.958 396.355 C 178.735 403.416, 174.391 402.203, 166.821 394.920 C 160.641 388.975, 156 386.018, 156 388.025 C 156 389.496, 153.289 389.195, 152.699 387.658 C 152.028 385.909, 145.166 386.114, 144.052 387.917 C 143.415 388.947, 143.059 388.762, 142.542 387.132 C 141.788 384.755, 140.925 384.475, 139.318 386.082 C 138.152 387.248, 135.347 386.035, 131.612 382.750 C 127.878 379.465, 125 380.968, 125 386.204 C 125 387.784, 125.299 387.997, 126.324 387.146 C 128.293 385.512, 130 387.715, 130 391.891 C 130 395.191, 130.082 395.276, 131.501 393.441 C 132.967 391.544, 133.027 391.543, 134.127 393.387 C 135.908 396.372, 142.039 402.891, 145.147 405.104 C 147.742 406.953, 147.926 406.970, 147.292 405.313 C 146.626 403.570, 146.694 403.569, 149.050 405.279 C 152.395 407.709, 161.190 411.978, 162.872 411.990 C 163.979 411.998, 164.004 411.709, 163 410.500 C 161.436 408.615, 161.168 408.593, 170.590 411.128 C 176.666 412.763, 181.247 413.241, 190.348 413.190 C 196.864 413.154, 203.389 413.549, 204.848 414.068 C 207.333 414.952, 207.379 414.917, 205.573 413.516 C 201.664 410.482, 205.001 410.975, 211.904 414.452 C 220.393 418.727, 230.895 421.363, 236 420.500 C 240.283 419.776, 249.224 423.276, 252.498 426.958 C 254.636 429.363, 260.669 432.891, 259.551 431.083 C 258.736 429.765, 258.744 429.764, 264.701 430.977 C 273.974 432.864, 278.213 432.998, 277.593 431.383 C 277.120 430.148, 278.240 430.006, 284.766 430.474 C 289.718 430.829, 291.781 430.705, 290.500 430.129 C 288.674 429.307, 288.761 429.163, 291.500 428.472 C 296.292 427.261, 304.057 423.067, 310 418.478 C 313.025 416.143, 316.527 413.706, 317.781 413.064 L 320.062 411.896 317.930 408.902 L 315.798 405.907 320.687 400.704 C 327.106 393.870, 329.768 389.448, 334.024 378.546 C 337.992 368.379, 340.101 366.745, 341.965 372.395 C 342.802 374.930, 342.830 376.951, 342.066 379.700 C 340.098 386.788, 341.365 387.941, 346.117 383.388 L 348.844 380.775 353.407 382.518 C 358.609 384.504, 365.704 391.538, 368.977 397.955 C 370.166 400.286, 371.388 401.946, 371.691 401.642 C 372.408 400.925, 367.606 392.614, 363.519 387.500 C 356.804 379.096, 353 373.812, 353 372.888 C 353 371.414, 356.006 373.326, 360.397 377.594 C 364.893 381.964, 364.859 381.740, 359.500 371.631 C 355.839 364.725, 355.635 363.951, 357.093 362.485 C 358.554 361.019, 359.195 361.309, 364.757 365.956 L 370.826 371.028 369.488 365.954 C 368.752 363.164, 366.584 356.970, 364.670 352.190 C 360.876 342.712, 359.167 335, 360.861 335 C 361.432 335, 363.100 336.575, 364.568 338.500 C 369.650 345.162, 369.868 342.733, 365.384 329.425 C 362.553 321.024, 362.484 320.329, 364.661 322.128 C 366.156 323.363, 366.268 323.212, 365.776 320.626 C 365.349 318.380, 365.642 317.645, 367.115 317.260 C 369.413 316.659, 369.435 316.128, 367.375 310.979 C 366.481 308.745, 366.039 306.627, 366.393 306.273 C 367.509 305.158, 374.713 313.017, 377.945 318.876 L 381.048 324.500 380.389 320.500 C 380.027 318.300, 378.860 313.644, 377.795 310.153 C 376.731 306.663, 376.067 303.599, 376.321 303.346 C 377.529 302.138, 383.376 312.657, 386.690 322 C 388.339 326.649, 388.872 327.503, 388.563 325 C 386.360 307.184, 385.769 298.577, 386.728 298.257 C 387.311 298.063, 387.540 296.955, 387.236 295.796 C 386.867 294.384, 387.058 293.918, 387.815 294.386 C 389.661 295.527, 392.558 306.540, 395.047 321.882 C 397.448 336.676, 398.777 338.251, 398.945 326.500 C 399.006 322.238, 399.311 320.934, 400 322 C 400.786 323.216, 400.972 323.081, 400.985 321.281 C 400.995 319.723, 401.447 319.234, 402.500 319.638 C 404.289 320.325, 404.259 320.767, 402.913 313.490 C 402.259 309.948, 399.309 302.621, 395.493 295.056 C 389.238 282.655, 387.061 277, 388.544 277 C 388.963 277, 391.937 279.697, 395.153 282.994 L 401 288.989 401.006 284.744 C 401.009 282.410, 401.473 277.800, 402.037 274.500 C 402.601 271.200, 403.065 265.221, 403.067 261.213 C 403.069 257.178, 403.471 254.173, 403.966 254.479 C 405.708 255.555, 405.968 253.167, 404.493 249.638 C 402.630 245.179, 402.618 244.438, 404.430 245.942 C 406.802 247.910, 408.265 243.679, 407.828 236.119 C 407.550 231.317, 406.555 227.606, 404.205 222.601 C 400.738 215.216, 399.405 214.260, 401.091 220.366 C 402.743 226.352, 401.535 226.935, 398.742 221.500 C 396.628 217.385, 386.802 206.235, 388.168 209.500 C 388.398 210.050, 389.580 212.675, 390.793 215.333 C 392.007 217.991, 393 220.430, 393 220.752 C 393 221.074, 389.738 218.177, 385.750 214.313 C 379.001 207.774, 374.652 205.014, 373.271 206.395 C 371.660 208.007, 356 195.118, 356 192.181 C 356 191.414, 356.563 190.996, 357.250 191.252 C 366.769 194.798, 368.016 194.767, 366.018 191.033 L 364.873 188.895 368.937 190.968 C 372.880 192.979, 374.228 192.628, 371.817 190.217 C 369.356 187.756, 371.885 188.032, 374.878 190.551 C 377.367 192.645, 377.875 192.807, 377.357 191.342 C 376.931 190.138, 378.055 190.732, 380.603 193.056 C 386.183 198.147, 394.362 204.538, 393.887 203.436 C 393.665 202.921, 391.794 199.238, 389.729 195.250 C 387.664 191.262, 386.246 188, 386.577 188 C 386.909 188, 391.064 191.576, 395.810 195.947 C 400.557 200.317, 404.572 203.761, 404.733 203.600 C 404.894 203.439, 403.895 200.303, 402.513 196.631 C 401.131 192.959, 400.017 189.627, 400.038 189.227 C 400.058 188.827, 401.627 190.300, 403.523 192.500 C 406.801 196.304, 406.970 196.377, 406.973 194 C 406.975 192.625, 406.312 189.025, 405.500 186 C 404.688 182.975, 404.018 180.309, 404.012 180.076 C 404.005 179.842, 405.187 180.742, 406.639 182.076 L 409.277 184.500 408.684 177.500 C 408.358 173.650, 407.452 168.025, 406.670 165 C 404.004 154.680, 403.863 153.798, 405 154.500 C 406.959 155.710, 410.752 162.520, 414.907 172.282 C 418.723 181.248, 419.006 182.560, 419.090 191.699 C 419.198 203.456, 420.372 200.770, 421.799 185.500 C 422.866 174.078, 422.790 173.031, 419.386 152 C 416.470 133.977, 413.776 121.106, 411.037 112.095 C 408.961 105.266, 409.705 105.045, 412.940 111.530 C 414.029 113.713, 414.938 114.967, 414.960 114.315 C 415.039 111.962, 412.870 107.616, 409.965 104.307 C 408.334 102.450, 407 100.408, 407 99.769 C 407 97.698, 414.077 105.347, 417.391 111 C 419.318 114.286, 421.800 117.047, 423.558 117.859 C 430.116 120.888, 433.652 123.944, 436.363 128.925 C 437.922 131.791, 438.956 134.377, 438.661 134.673 C 438.365 134.968, 436.684 133.571, 434.925 131.567 C 431.755 127.957, 423.339 122.328, 422.446 123.221 C 422.191 123.476, 424.701 126.049, 428.023 128.939 C 434.240 134.346, 437.674 139.833, 441.132 149.884 C 443.744 157.474, 443.445 158.083, 439.357 153.500 C 437.395 151.300, 436.004 150.175, 436.266 151 C 436.528 151.825, 438.397 157.621, 440.419 163.881 C 442.442 170.140, 443.962 175.937, 443.798 176.762 C 443.622 177.648, 442.123 176.136, 440.141 173.074 C 438.294 170.220, 436.613 168.053, 436.407 168.260 C 436.200 168.466, 436.719 171.935, 437.560 175.967 C 439.547 185.496, 439.024 187.800, 436.191 182 C 434.842 179.237, 434.167 178.465, 434.442 180 C 435.960 188.448, 436.146 198.397, 434.904 204.662 L 433.549 211.500 432.512 201 L 431.476 190.500 429.109 203 C 427.808 209.875, 424.782 223.375, 422.386 233 C 419.989 242.625, 418.022 251.889, 418.014 253.587 C 418.006 255.285, 417.328 261.135, 416.506 266.587 C 414.651 278.891, 414.658 280.195, 416.556 277 C 417.914 274.715, 418.002 275.491, 417.580 286 C 417.298 293.012, 417.434 296.134, 417.927 294 C 418.716 290.588, 418.741 290.626, 418.888 295.500 C 419.124 303.299, 420.732 312.921, 423.055 320.443 C 426.736 332.361, 438.804 342.897, 453.910 347.381 L 459.320 348.987 464.410 344.157 C 476.970 332.238, 484.288 324.360, 486.755 320.102 C 488.221 317.571, 490.676 313.745, 492.210 311.600 C 495.800 306.581, 495.792 304.867, 492.195 308.313 C 488.508 311.845, 487.778 311.703, 488.547 307.602 C 489.363 303.252, 487.675 295.096, 483.352 282.500 C 480.739 274.884, 479.648 269.508, 478.777 259.950 C 477.652 247.609, 478.213 240.964, 479.999 245.500 C 480.432 246.600, 482.297 252.225, 484.143 258 L 487.500 268.500 487.800 262.750 C 487.965 259.587, 488.553 257, 489.106 257 C 489.660 257, 491.053 259.126, 492.203 261.725 L 494.293 266.451 498.101 254.571 C 500.195 248.037, 502.380 242.220, 502.955 241.645 C 504.525 240.075, 504.285 249.938, 502.638 254.624 C 501.889 256.756, 501 261.650, 500.663 265.500 L 500.050 272.500 502.505 267.250 C 503.856 264.363, 505.249 262, 505.601 262 C 505.953 262, 506.045 264.700, 505.806 268 C 505.568 271.300, 505.683 274, 506.063 274 C 507.673 274, 511.040 263.482, 513.906 249.500 C 515.596 241.250, 518.331 229.325, 519.983 223 C 521.683 216.488, 522.988 208.919, 522.993 205.550 C 523.002 198.314, 524.069 199.197, 526.554 208.500 L 528.424 215.500 529.326 209.500 C 529.919 205.558, 529.834 200.454, 529.079 194.619 C 528.446 189.734, 528.130 185.537, 528.376 185.290 C 528.817 184.850, 530.218 187.144, 537.359 200 C 541.698 207.811, 542.143 205.675, 538.540 194.331 C 535.918 186.074, 536.051 184.118, 538.989 187.741 C 544.189 194.155, 550.691 218.056, 546.894 216.802 C 546.127 216.549, 544.996 215.339, 544.379 214.113 C 543.424 212.215, 543.165 212.128, 542.629 213.524 C 542.283 214.426, 542 216.620, 542 218.400 C 542 222.914, 539.045 232.445, 537.977 231.374 C 537.498 230.893, 536.969 227.575, 536.803 224 L 536.500 217.500 534.366 224.500 C 533.192 228.350, 531.444 235.775, 530.481 241 C 528.369 252.467, 528 253.618, 526.968 251.948 C 526.553 251.277, 526.388 247.977, 526.600 244.614 C 527.009 238.118, 526.590 238.984, 523.993 250 C 523.280 253.025, 521.796 257.231, 520.696 259.347 C 519.022 262.569, 518.925 263.339, 520.098 264.082 C 522.395 265.536, 523.396 265.150, 525.500 262 C 529.109 256.597, 529.591 258.673, 526.835 267.744 C 526.292 269.529, 523.938 273.804, 521.603 277.244 C 515.407 286.373, 515.312 286.624, 519.069 283.969 C 525.403 279.494, 532.104 272.014, 534.509 266.736 C 535.821 263.856, 537.662 257.450, 538.599 252.500 C 539.537 247.550, 540.686 243.072, 541.152 242.550 C 542.374 241.180, 542.213 243.992, 540.593 252.292 C 539.819 256.256, 538.927 261.075, 538.611 263 C 538.068 266.302, 538.122 266.387, 539.561 264.500 C 540.400 263.400, 541.404 262.643, 541.793 262.817 C 542.497 263.133, 543.720 256.915, 546.448 239.141 C 548.520 225.644, 549.647 225.251, 550.816 237.619 L 551.561 245.500 553.933 239.500 C 555.237 236.200, 556.600 230.125, 556.960 226 L 557.616 218.500 559.472 224.750 C 560.493 228.188, 561.741 231, 562.246 231 C 562.751 231, 563.015 227.849, 562.832 223.998 C 562.649 220.147, 562.740 216.997, 563.034 216.998 C 563.328 216.999, 564.385 218.381, 565.382 220.069 C 566.379 221.757, 567.377 222.957, 567.599 222.735 C 568.737 221.596, 563.426 205.602, 559.496 198.335 C 557.023 193.761, 555 189.711, 555 189.335 C 555 188.959, 556.123 189.707, 557.496 190.996 C 558.869 192.286, 560.259 193.075, 560.584 192.749 C 561.767 191.566, 556.373 185.767, 548.526 179.787 C 538.804 172.377, 537.840 171.486, 540.500 172.370 C 541.600 172.735, 540.605 171.429, 538.290 169.467 C 535.974 167.505, 531.186 161.760, 527.648 156.700 C 524.111 151.640, 518.018 143.815, 514.108 139.311 C 510.199 134.807, 507 130.865, 507 130.552 C 507 130.239, 509.475 131.380, 512.500 133.087 C 518.263 136.339, 519.130 136.085, 516.296 131.973 C 514.182 128.906, 513.863 128.645, 501 119.500 C 484.711 107.919, 484.194 107.350, 491 108.500 C 493.547 108.930, 495 108.796, 495 108.130 C 495 106.745, 487.451 102.373, 481.639 100.393 C 474.660 98.015, 476.818 96.612, 486.327 97.346 C 490.915 97.700, 493.965 97.591, 493.433 97.093 C 491.501 95.287, 480.164 91.953, 471.109 90.529 C 465.944 89.716, 461.451 88.784, 461.124 88.457 C 460.797 88.131, 461.648 86.958, 463.015 85.853 L 465.500 83.842 462.500 84.526 C 456.732 85.840, 444.482 87.931, 442.345 87.965 C 439.864 88.005, 407 72.210, 407 70.978 C 407 70.528, 411.837 71.471, 417.750 73.074 C 423.663 74.677, 428.896 75.991, 429.381 75.994 C 430.511 76.002, 412.244 62.694, 408.403 60.711 C 403.323 58.089, 388.985 54.152, 373 50.990 C 364.475 49.304, 355.250 47.252, 352.500 46.429 C 345.440 44.318, 324.295 43.774, 315 45.464 M 351 53.062 C 351 54.201, 353.686 54.316, 354.372 53.208 C 354.641 52.772, 353.993 52.350, 352.931 52.270 C 351.869 52.190, 351 52.546, 351 53.062 M 358 53 C 358 53.550, 358.450 54, 359 54 C 359.550 54, 360 53.550, 360 53 C 360 52.450, 359.550 52, 359 52 C 358.450 52, 358 52.450, 358 53 M 362.813 52.683 C 363.534 52.972, 364.397 52.936, 364.729 52.604 C 365.061 52.272, 364.471 52.036, 363.417 52.079 C 362.252 52.127, 362.015 52.364, 362.813 52.683 M 262.621 68.600 C 258.850 71.131, 253.520 75.518, 250.778 78.350 C 247.220 82.025, 245.984 82.856, 246.463 81.250 C 247.492 77.804, 245.521 78.555, 242.057 82.928 C 238.927 86.880, 233.903 97.932, 231.965 105.128 C 230.522 110.490, 229.210 122, 230.042 122 C 230.419 122, 231.966 117.612, 233.481 112.250 C 236.051 103.152, 241.287 90, 242.339 90 C 242.595 90, 242.173 92.097, 241.402 94.659 C 239.091 102.338, 239.557 104.128, 242.656 99.482 C 245.829 94.726, 262.701 74.247, 268.387 68.250 C 273.713 62.632, 271.299 62.779, 262.621 68.600 M 500.733 92.124 C 501.412 92.808, 502.219 93.115, 502.526 92.807 C 502.834 92.499, 502.279 91.940, 501.293 91.564 C 499.868 91.022, 499.753 91.136, 500.733 92.124 M 435.517 97.972 C 435.128 98.601, 437.704 101.926, 441.469 105.654 C 448.368 112.485, 449.471 114.896, 443.874 110.911 C 439.797 108.008, 440.231 109.228, 446.910 119.460 C 452.019 127.286, 452.809 129.947, 449 126.500 C 447.893 125.498, 446.796 124.871, 446.562 125.105 C 446.113 125.554, 451.760 147.622, 454.561 156.366 C 458.478 168.592, 465.173 180.312, 463.634 172.250 C 462.582 166.735, 461.208 155.436, 461.294 153 C 461.342 151.625, 461.025 148.475, 460.589 146 L 459.796 141.500 464.148 147.052 C 466.542 150.106, 469.284 153.706, 470.243 155.052 L 471.985 157.500 471.384 154.500 C 471.053 152.850, 469.224 147.900, 467.320 143.500 C 463.097 133.742, 459.719 124.412, 460.745 125.338 C 461.160 125.713, 464.564 129.053, 468.309 132.760 C 473.809 138.204, 474.871 138.923, 473.831 136.500 C 472.019 132.281, 466.368 122.536, 461.798 115.750 C 459.668 112.588, 458.348 110, 458.864 110 C 459.380 110, 462.882 111.314, 466.647 112.920 C 470.412 114.526, 473.652 115.681, 473.847 115.487 C 475.847 113.486, 462.304 105.599, 449.788 101.474 C 443.675 99.460, 438.118 97.599, 437.438 97.338 C 436.758 97.077, 435.894 97.363, 435.517 97.972 M 391 105.518 C 391 105.842, 393.398 109.120, 396.329 112.803 C 402.476 120.529, 406 125.516, 406 126.489 C 406 126.864, 403.905 125.326, 401.345 123.073 C 398.785 120.819, 396.483 119.184, 396.229 119.438 C 395.975 119.692, 397.185 122.205, 398.919 125.023 C 404.112 133.462, 410.960 149.667, 413.657 159.895 C 416.148 169.342, 418 173.406, 418 169.425 C 418 162.828, 411.726 133.402, 409.246 128.372 C 408.739 127.342, 407.108 123.983, 405.621 120.906 C 404.135 117.829, 401.024 113.398, 398.709 111.059 C 394.618 106.924, 391 104.324, 391 105.518 M 129 107.500 C 128.306 108.337, 128.197 109, 128.755 109 C 129.305 109, 130.315 108.325, 131 107.500 C 131.694 106.663, 131.803 106, 131.245 106 C 130.695 106, 129.685 106.675, 129 107.500 M 257.834 113.750 C 253.234 118.731, 248.712 126.232, 247.027 131.677 C 245.420 136.872, 244 137.789, 244 133.633 C 244 132.131, 243.707 131.893, 242.879 132.721 C 242.262 133.338, 241.529 137.862, 241.249 142.774 C 240.823 150.237, 241.103 152.800, 242.951 158.353 C 245.130 164.901, 247.578 167.613, 246.469 162.250 C 245.940 159.689, 246.045 159.740, 248 163 C 250.257 166.762, 250.282 166.424, 248.350 158.250 L 247.701 155.500 249.996 157.500 L 252.291 159.500 251.650 156.500 C 250.100 149.244, 249.795 140.024, 250.945 135.228 C 251.612 132.449, 254.134 126.708, 256.549 122.469 C 261.358 114.030, 262.601 111, 261.254 111 C 260.770 111, 259.231 112.237, 257.834 113.750 M 129.603 117.833 C 129.320 118.292, 129.743 118.667, 130.544 118.667 C 131.345 118.667, 132 118.292, 132 117.833 C 132 117.375, 131.577 117, 131.059 117 C 130.541 117, 129.886 117.375, 129.603 117.833 M 281.174 121.314 C 278.598 124.057, 278.278 126.491, 280.611 125.596 C 281.764 125.153, 282.058 125.407, 281.643 126.489 C 281.241 127.536, 281.696 128, 283.125 128 C 284.346 128, 285.401 128.816, 285.710 130 C 285.998 131.100, 286.679 132, 287.224 132 C 287.768 132, 287.955 132.675, 287.638 133.500 C 287.223 134.584, 287.748 135, 289.531 135 C 290.889 135, 292 135.338, 291.999 135.750 C 291.999 136.162, 288.984 139.196, 285.300 142.490 C 281.616 145.785, 278.918 147.656, 279.305 146.647 C 282.004 139.614, 280.612 137.656, 277.031 143.449 C 275.676 145.642, 274.371 146.696, 273.450 146.342 C 272.625 146.026, 271.993 146.371, 271.983 147.143 C 271.974 147.889, 270.961 146.925, 269.733 145 L 267.500 141.500 267.222 145 C 266.844 149.757, 269.117 157.057, 271.394 158.401 C 272.822 159.243, 273.372 159.182, 273.750 158.137 C 274.165 156.986, 274.379 156.986, 275.121 158.137 C 275.862 159.286, 276.140 159.283, 276.888 158.122 C 277.377 157.364, 278.277 157.053, 278.888 157.431 C 279.500 157.809, 280 157.623, 280 157.019 C 280 155.851, 288.002 148.034, 289.219 148.012 C 289.614 148.006, 289.668 148.700, 289.340 149.557 C 288.928 150.629, 291.349 149.855, 297.121 147.068 C 301.730 144.843, 307.413 142.550, 309.750 141.973 C 312.087 141.395, 314 140.542, 314 140.077 C 314 139.611, 311.413 138.863, 308.250 138.413 C 304.161 137.831, 303.312 137.488, 305.309 137.225 C 309.126 136.723, 308.290 134.933, 303.050 132.389 L 298.703 130.278 302.482 129.569 C 304.560 129.179, 305.864 128.492, 305.380 128.041 C 304.018 126.773, 292.743 123.546, 290.500 123.783 C 288.703 123.972, 288.754 123.783, 291 121.919 L 293.500 119.845 289.250 120.327 C 286.913 120.593, 285 120.403, 285 119.905 C 285 118.337, 283.427 118.916, 281.174 121.314 M 125.510 121.016 C 125.856 121.575, 126.557 121.774, 127.069 121.457 C 128.456 120.600, 128.198 120, 126.441 120 C 125.584 120, 125.165 120.457, 125.510 121.016 M 196 130.906 C 196 138.120, 194.004 146.673, 190.439 154.734 C 187.703 160.921, 187.907 162.278, 191.144 159.411 L 193.299 157.500 192.528 160.500 C 189.374 172.762, 190.203 173.069, 195.901 161.750 C 199.957 153.692, 203.696 139.935, 202.400 137.838 C 201.962 137.130, 201.505 137.183, 201.001 137.999 C 200.573 138.691, 199.775 136.509, 199.143 132.924 C 197.579 124.042, 196 123.028, 196 130.906 M 482.298 129.149 C 487.993 142.208, 491.091 155.893, 490.921 167.239 C 490.848 172.116, 490.769 172.281, 489.847 169.500 C 486.164 158.391, 479.435 146.056, 482.070 155.243 C 483.490 160.195, 483.171 180.412, 481.514 190.500 C 480.700 195.450, 480.065 200.850, 480.102 202.500 C 480.167 205.449, 480.201 205.428, 482.097 201.307 C 483.158 199.001, 484.212 195.851, 484.440 194.307 C 484.668 192.763, 485.337 190.150, 485.928 188.500 C 488.516 181.266, 485.968 195.007, 483.055 203.995 C 481.386 209.143, 480.216 213.549, 480.454 213.787 C 480.692 214.025, 482.374 212.108, 484.193 209.528 L 487.500 204.836 488.342 209.168 C 488.806 211.551, 489.256 218.089, 489.342 223.699 C 489.429 229.308, 489.803 233.583, 490.173 233.199 C 492.051 231.247, 494.300 217.954, 494.891 205.307 C 495.255 197.500, 495.813 190.854, 496.129 190.538 C 496.446 190.221, 497.289 194.042, 498.004 199.029 C 499.996 212.922, 501.524 209.217, 501.393 190.813 C 501.288 175.990, 501.318 175.770, 503.121 178.114 C 504.130 179.426, 505.696 182.750, 506.601 185.500 C 510.858 198.441, 510.765 187.925, 506.496 173.750 C 505.212 169.488, 504.483 166, 504.876 166 C 505.560 166, 510.138 171.825, 514.943 178.808 C 516.194 180.627, 517.418 181.916, 517.662 181.672 C 518.115 181.219, 514.887 168.122, 513.430 164.500 C 512.714 162.720, 512.811 162.651, 514.313 163.872 C 515.241 164.627, 516 164.916, 516 164.514 C 516 163.645, 506.039 151, 505.355 151 C 505.095 151, 505.160 151.450, 505.500 152 C 505.840 152.550, 505.696 153, 505.180 153 C 503.909 153, 495.512 143.086, 489.995 135.071 C 487.518 131.471, 484.640 128.362, 483.599 128.161 C 482.311 127.913, 481.896 128.228, 482.298 129.149 M 288.119 154.629 C 286.840 155.525, 284.514 158.963, 282.950 162.269 C 280.295 167.883, 280.064 168.105, 279.446 165.639 C 278.542 162.041, 277 162.305, 277 166.059 C 277 167.844, 276.583 168.861, 276 168.500 C 275.450 168.160, 275 167.035, 275 166 C 275 164.965, 274.481 163.798, 273.848 163.406 C 273.008 162.887, 272.880 163.889, 273.374 167.097 L 274.054 171.500 271.447 168.500 C 269.587 166.360, 269.038 166.073, 269.533 167.500 C 271.428 172.962, 271.446 173.582, 269.673 172.128 C 268.685 171.317, 268 171.190, 268 171.819 C 268 172.403, 268.450 173.160, 269 173.500 C 271.448 175.013, 269.691 175.892, 267 174.500 C 265.350 173.647, 264 173.394, 264 173.939 C 264 174.484, 264.900 175.411, 266 176 C 269.051 177.633, 268.400 178.840, 264.250 179.245 L 260.500 179.611 264 181.001 C 267.451 182.371, 267.465 182.400, 265 183.096 C 263.625 183.483, 261.038 183.845, 259.250 183.900 C 257.462 183.955, 256 184.450, 256 185 C 256 186.019, 258.701 186.466, 262.750 186.118 C 265.975 185.841, 265.555 186.625, 260.906 189.560 C 255.979 192.669, 256.494 193.817, 262 192 C 266.861 190.396, 267.827 191.089, 265.556 194.556 C 263.660 197.449, 263.980 198.934, 265.980 196.524 C 267.808 194.321, 268.885 194.652, 268.344 197.250 C 267.899 199.383, 267.954 199.370, 269.402 197 L 270.929 194.500 270.965 197.518 C 270.996 200.224, 275.210 208, 276.644 208 C 276.959 208, 276.934 206.875, 276.589 205.500 C 275.748 202.149, 276.778 202.315, 278.141 205.750 L 279.232 208.500 280.383 205.216 C 281.315 202.555, 281.774 202.174, 282.808 203.208 C 283.837 204.237, 284.235 204.238, 284.867 203.215 C 286 201.382, 290.427 201.416, 299.208 203.324 C 308.597 205.366, 310.628 205.411, 311.325 203.594 C 311.622 202.821, 313.358 201.875, 315.182 201.491 C 317.007 201.107, 321.410 199.264, 324.967 197.396 C 328.524 195.528, 332.870 194, 334.624 194 C 337.257 194, 337.727 193.671, 337.319 192.113 C 336.584 189.302, 338.288 188.837, 343.099 190.535 C 349.011 192.621, 350.735 191.850, 348.203 188.254 C 347.137 186.739, 344.374 181.900, 342.063 177.500 C 337.593 168.989, 332.391 162.826, 327.519 160.272 L 324.538 158.710 327.763 162.383 C 330.638 165.658, 335 172.962, 335 174.503 C 335 174.824, 331.962 172.644, 328.250 169.659 C 320.699 163.587, 314.506 160, 311.574 160 C 309.639 160, 309.639 159.984, 311.559 158.532 C 313.343 157.182, 313.061 157.061, 308.059 157.032 C 302.962 157.002, 302.741 156.901, 304.559 155.438 C 306.377 153.975, 306.250 153.917, 302.547 154.521 C 300.372 154.877, 296.841 156.061, 294.700 157.153 C 290.164 159.467, 289.581 159.232, 290.947 155.639 C 292.105 152.594, 291.390 152.338, 288.119 154.629 M 448.530 161.250 C 448.918 163.588, 449.632 165.650, 450.116 165.833 C 450.600 166.016, 450.734 167.211, 450.413 168.489 C 449.781 171.007, 452.321 184.823, 454.606 191.300 C 456.687 197.198, 455.650 196.880, 452 190.500 C 450.232 187.410, 448.625 185.042, 448.429 185.237 C 448.234 185.433, 448.671 187.597, 449.401 190.047 C 450.901 195.074, 452.419 206, 451.619 206 C 451.330 206, 450.223 204.088, 449.159 201.750 C 444.903 192.398, 444.470 192.887, 444.856 206.602 C 445.052 213.554, 444.862 222.675, 444.434 226.871 L 443.656 234.500 442.923 229.500 C 442.521 226.750, 441.847 221.800, 441.428 218.500 L 440.664 212.500 439.890 216.500 C 439.464 218.700, 439.089 223.040, 439.058 226.145 C 439.007 231.081, 435.972 243.652, 434.142 246.500 C 433.789 247.050, 433.275 245.025, 433 242 C 432.504 236.544, 432.466 236.637, 428.290 253.500 C 423.484 272.910, 421.240 287.247, 422.922 287.807 C 423.515 288.005, 424.008 290.492, 424.017 293.333 C 424.035 298.496, 426.224 310.723, 427.807 314.500 C 431.905 324.277, 438.290 334.043, 439.678 332.656 C 439.884 332.450, 438.690 328.880, 437.026 324.724 C 435.362 320.568, 434 315.779, 434 314.083 C 434 310.487, 432.467 309.998, 431.389 313.250 C 430.711 315.293, 430.574 315.179, 429.899 312.013 C 428.663 306.213, 432.684 290.066, 436.752 284.500 C 438.080 282.682, 438.161 283.001, 437.645 288 C 437.332 291.025, 436.798 295.300, 436.457 297.500 L 435.838 301.500 437.975 299 L 440.112 296.500 439.468 300.750 C 438.608 306.429, 440.389 306.253, 442 300.500 C 442.693 298.025, 443.539 295.999, 443.880 295.998 C 444.221 295.997, 444.351 298.629, 444.169 301.846 C 443.987 305.063, 444.006 309.001, 444.212 310.598 C 444.566 313.337, 444.659 313.254, 445.866 309.123 C 447.422 303.801, 448.742 304.724, 449.267 311.500 C 449.574 315.450, 449.821 316.027, 450.444 314.250 C 451.421 311.464, 452.157 311.421, 453.802 314.055 C 456.932 319.067, 456.001 337, 452.611 337 C 449.368 337, 445.162 334.670, 443.946 332.200 L 442.617 329.500 442.211 331.966 C 441.919 333.735, 442.550 335.027, 444.439 336.533 C 447.598 339.052, 457 343.162, 457 342.024 C 457 341.582, 459.062 340.251, 461.581 339.067 C 464.101 337.882, 468.780 334.345, 471.979 331.207 C 477.535 325.757, 477.828 325.216, 478.503 319.189 C 478.892 315.717, 478.938 312.605, 478.605 312.272 C 478.272 311.939, 478 313.343, 478 315.392 C 478 317.726, 477.610 318.877, 476.956 318.473 C 476.382 318.118, 475.249 318.379, 474.437 319.052 C 472.275 320.846, 469.123 317.622, 468.357 312.831 C 468.020 310.724, 467.304 309, 466.765 309 C 466.227 309, 466.033 309.644, 466.335 310.431 C 466.637 311.219, 467.197 315.719, 467.580 320.431 C 468.390 330.421, 466.856 332.186, 464.913 323.500 C 464.236 320.475, 463.303 318, 462.841 318 C 462.378 318, 461.974 320.587, 461.942 323.750 C 461.911 326.913, 461.512 331.300, 461.057 333.500 C 460.302 337.152, 460.220 336.891, 460.115 330.500 C 460.005 323.836, 456.458 299.124, 455.469 298.135 C 455.211 297.878, 455 299.092, 455 300.833 C 455 302.575, 454.643 304, 454.207 304 C 452.817 304, 451.002 295.200, 450.955 288.236 C 450.912 281.657, 450.871 281.553, 449.205 283.785 C 444.028 290.722, 443.983 290.740, 446.148 285 C 447.289 281.975, 448.320 277.250, 448.440 274.500 C 448.560 271.750, 449.375 265.450, 450.252 260.500 C 452.351 248.641, 454.423 222.008, 453.813 214.715 C 453.263 208.132, 453.515 208.241, 457.961 216.500 C 459.737 219.800, 461.436 222.725, 461.735 223 C 462.886 224.056, 460.982 211.225, 459.181 205.780 C 457.216 199.840, 457.899 198.971, 460.533 204.063 C 462.440 207.751, 463.973 207.831, 464.090 204.250 C 464.174 201.688, 464.248 201.740, 465.168 205 C 466.940 211.276, 468 210.741, 468 203.572 C 468 197.865, 467.521 195.902, 465.083 191.622 C 463.479 188.805, 461.203 183.575, 460.025 180 C 457.318 171.788, 450.106 157, 448.807 157 C 448.207 157, 448.099 158.655, 448.530 161.250 M 302.004 160.884 C 302.006 161.223, 304.143 162.350, 306.754 163.389 C 309.364 164.429, 314.875 167.273, 319 169.710 C 325.553 173.582, 326.157 173.783, 323.787 171.304 C 319.873 167.212, 310.588 161.839, 305.971 160.995 C 303.787 160.595, 302.002 160.546, 302.004 160.884 M 166.250 170.718 C 164.262 171.432, 164.802 174, 166.941 174 C 168.009 174, 169.129 173.601, 169.430 173.113 C 170.166 171.923, 167.818 170.154, 166.250 170.718 M 300.250 170.672 C 298.584 171.331, 298.658 174.471, 300.373 175.895 C 302.160 177.377, 304.756 176.344, 305.553 173.832 C 305.899 172.742, 306.029 171.714, 305.841 171.549 C 304.982 170.792, 301.376 170.227, 300.250 170.672 M 310 175 C 310 175.550, 310.702 176, 311.559 176 C 312.416 176, 312.840 175.550, 312.500 175 C 312.160 174.450, 311.459 174, 310.941 174 C 310.423 174, 310 174.450, 310 175 M 244.642 178.750 C 242.965 184.705, 243.088 186.902, 245.475 193.735 C 246.864 197.710, 248 201.646, 248 202.481 C 248 204.272, 249.155 204.445, 250.713 202.887 C 252.565 201.035, 254 202.886, 254 207.130 C 254 210.290, 254.808 212.134, 257.809 215.821 C 259.903 218.394, 263.367 222.709, 265.506 225.409 C 267.644 228.109, 269.569 229.792, 269.783 229.150 C 269.997 228.509, 268.593 224.275, 266.664 219.742 C 264.734 215.209, 262.653 209.588, 262.039 207.250 C 261.425 204.912, 260.490 203, 259.961 203 C 259.433 203, 259 202.100, 259 201 C 259 199.511, 258.333 199, 256.393 199 C 254.486 199, 253.941 198.597, 254.362 197.499 C 254.679 196.673, 253.830 194.364, 252.475 192.368 C 251.121 190.372, 249.049 186.098, 247.872 182.869 C 246.695 179.641, 245.598 177, 245.433 177 C 245.269 177, 244.913 177.787, 244.642 178.750 M 159.070 180.691 C 159.032 181.896, 159.450 183.160, 160 183.500 C 161.183 184.231, 161.183 183.252, 160 180.500 C 159.171 178.572, 159.138 178.579, 159.070 180.691 M 289 185.066 C 289 186.794, 290.989 190, 292.061 190 C 292.606 190, 292.353 188.650, 291.500 187 C 289.899 183.904, 289 183.209, 289 185.066 M 322.561 190.869 C 319.641 192.991, 314.940 195.159, 311.061 196.172 L 304.500 197.885 309 197.920 C 314.175 197.961, 319.972 195.528, 325 191.205 C 330.040 186.871, 328.376 186.642, 322.561 190.869 M 158 191.885 C 158 192.782, 161.005 194.328, 161.598 193.736 C 161.769 193.564, 161.030 192.875, 159.955 192.204 C 158.880 191.532, 158 191.389, 158 191.885 M 280.981 193.523 C 279.924 194.796, 279.986 194.943, 281.359 194.416 C 282.261 194.069, 283 193.384, 283 192.893 C 283 191.607, 282.421 191.788, 280.981 193.523 M 109.543 205.931 C 109.226 206.443, 109.425 207.144, 109.984 207.490 C 110.543 207.835, 111 207.416, 111 206.559 C 111 204.802, 110.400 204.544, 109.543 205.931 M 347 210.669 C 343.467 212.372, 342.099 213.462, 343.175 213.718 C 344.948 214.141, 352.431 210.729, 353.491 209.014 C 354.477 207.419, 352.924 207.815, 347 210.669 M 355 213.504 C 352.525 214.252, 347.350 216.009, 343.500 217.407 C 339.650 218.805, 335.739 219.960, 334.809 219.974 C 331.644 220.023, 331.917 221.921, 335.214 222.793 L 338.500 223.663 334.063 225.947 C 331.622 227.204, 329.003 228.855, 328.241 229.616 C 327.480 230.377, 326.102 231.014, 325.179 231.032 C 323.656 231.061, 323.666 231.189, 325.282 232.415 C 326.955 233.684, 326.922 233.803, 324.752 234.347 C 323.480 234.667, 321.441 234.667, 320.220 234.347 C 317.414 233.614, 317.398 234.730, 320.171 237.682 C 323.215 240.922, 321.775 241.655, 317.417 239.083 C 315.399 237.893, 313.559 237.108, 313.328 237.339 C 313.096 237.570, 314.444 239.388, 316.322 241.380 C 319.514 244.765, 320.129 245, 325.785 245 C 329.525 245, 333.541 244.268, 336.307 243.083 C 342.916 240.250, 343.068 239.005, 336.809 238.970 C 330.887 238.936, 331.466 238.176, 339.495 235.450 C 344.388 233.789, 352.394 229.060, 351.621 228.288 C 351.391 228.057, 349.311 228.378, 347 229 C 344.689 229.622, 342.625 229.959, 342.414 229.748 C 342.203 229.536, 343.936 227.938, 346.265 226.196 C 352.754 221.341, 361.521 213.719, 361.325 213.102 C 360.992 212.052, 359.481 212.148, 355 213.504 M 170.230 228.945 C 165.348 229.739, 162.112 232, 165.857 232 C 169.365 232, 177 229.863, 177 228.881 C 177 227.917, 176.524 227.921, 170.230 228.945 M 509.034 228.500 C 508.925 229.050, 508.660 230.850, 508.446 232.500 C 508.074 235.362, 508.103 235.388, 509.065 233.062 C 509.620 231.722, 509.885 229.922, 509.653 229.062 C 509.422 228.203, 509.143 227.950, 509.034 228.500 M 137.500 240.290 C 134.750 241.506, 131.037 243.385, 129.250 244.466 C 125.823 246.538, 124.772 248.689, 127.750 247.537 C 128.713 247.165, 130.850 246.594, 132.500 246.269 C 135.835 245.612, 141.523 241.686, 142.382 239.448 C 142.687 238.651, 142.839 238.018, 142.719 238.040 C 142.598 238.062, 140.250 239.075, 137.500 240.290 M 303 239.533 C 303 239.827, 304.090 242.218, 305.422 244.847 C 308.968 251.845, 315.964 257.755, 324.579 261.030 C 328.901 262.673, 326.966 260.562, 317.369 253.161 C 312.347 249.289, 307.247 244.518, 306.037 242.560 C 303.986 239.241, 303 238.259, 303 239.533 M 448.029 243 C 445.551 251.972, 440.996 282.237, 442.310 280.994 C 443.566 279.806, 447.157 263.589, 448.579 252.680 C 450.245 239.900, 450.013 235.816, 448.029 243 M 319.476 248.039 C 318.534 249.562, 322.723 251, 328.101 251 C 330.979 251, 333.124 250.791, 332.869 250.536 C 331.791 249.458, 319.962 247.253, 319.476 248.039 M 564.184 253.496 C 563.556 254.873, 563.453 256, 563.954 256 C 564.938 256, 566.460 252.127, 565.754 251.420 C 565.518 251.185, 564.811 252.118, 564.184 253.496 M 182.580 254.336 C 180.424 254.987, 178.451 256.146, 178.196 256.911 C 177.815 258.055, 178.956 258.178, 184.573 257.603 C 192.046 256.837, 195.579 255.139, 192.347 253.867 C 189.746 252.844, 187.107 252.970, 182.580 254.336 M 513.618 261.117 C 512.785 264.078, 511.855 268.750, 511.552 271.500 L 511.001 276.500 512.965 272.500 C 515.843 266.640, 517.603 258.203, 516.233 256.833 C 515.433 256.033, 514.720 257.202, 513.618 261.117 M 191.667 257.667 C 190.078 259.256, 191.301 260, 195.500 260 C 200.254 260, 201.540 258.646, 197.750 257.630 C 194.775 256.833, 192.487 256.847, 191.667 257.667 M 493.079 258.583 C 493.127 259.748, 493.364 259.985, 493.683 259.188 C 493.972 258.466, 493.936 257.603, 493.604 257.271 C 493.272 256.939, 493.036 257.529, 493.079 258.583 M 101.804 259.239 C 94.460 260.500, 85.554 268.637, 83.462 276 L 82.752 278.500 85.450 276.006 C 88.283 273.388, 89.518 273.266, 103 274.277 C 110.490 274.839, 110.405 274.807, 109 276.500 C 107.955 277.759, 108.136 278.019, 110.128 278.118 C 111.432 278.184, 112.885 278.168, 113.355 278.083 C 113.826 277.999, 114.925 278.508, 115.797 279.215 C 117.008 280.196, 117.206 280.204, 116.633 279.250 C 116.144 278.437, 116.514 277.989, 117.691 277.968 C 118.686 277.951, 120.374 277.276, 121.441 276.468 C 125.749 273.210, 134.221 275.486, 144.769 282.737 C 147.956 284.927, 149.593 286.633, 148.912 287.054 C 148.093 287.561, 148.088 287.936, 148.893 288.434 C 150.197 289.240, 152 288.321, 152 286.851 C 152 286.284, 152.940 285.059, 154.090 284.128 C 155.239 283.197, 156.831 279.975, 157.627 276.968 L 159.075 271.500 154.508 267.311 C 147.155 260.566, 142.167 259.235, 122.755 258.839 C 113.599 258.653, 104.171 258.832, 101.804 259.239 M 474.542 265.176 C 476 275.875, 481.125 294.356, 483.230 296.500 C 484.531 297.826, 483.572 293.113, 479.976 280.500 C 478.408 275, 476.832 268.590, 476.475 266.255 C 476.118 263.921, 475.405 261.750, 474.889 261.432 C 474.330 261.086, 474.190 262.592, 474.542 265.176 M 198.441 263.532 C 200.608 265.171, 203 265.473, 203 264.107 C 203 263.052, 200.521 261.987, 198.168 262.032 C 196.729 262.059, 196.767 262.265, 198.441 263.532 M 437.630 266.789 C 436.598 268.459, 435.040 273, 435.499 273 C 436.249 273, 439.182 266.849, 438.674 266.341 C 438.413 266.080, 437.944 266.282, 437.630 266.789 M 459.622 272.825 C 459.179 274.104, 459.083 275.417, 459.409 275.742 C 460.445 276.779, 461.174 275.250, 460.794 272.836 L 460.426 270.500 459.622 272.825 M 93.500 277 C 93.840 277.550, 94.568 278, 95.118 278 C 95.668 278, 95.840 277.550, 95.500 277 C 95.160 276.450, 94.432 276, 93.882 276 C 93.332 276, 93.160 276.450, 93.500 277 M 164.974 278.250 C 164.960 278.387, 163.922 281.510, 162.669 285.189 C 160.205 292.417, 161.051 293.383, 163.938 286.640 C 166.721 280.139, 167.249 278, 166.067 278 C 165.480 278, 164.988 278.113, 164.974 278.250 M 236 278.529 C 236 278.819, 237.396 281.823, 239.103 285.204 L 242.206 291.351 239.026 288.676 C 233.687 284.183, 232.615 285.366, 236.005 292.011 C 237.597 295.130, 237.700 295.822, 236.505 295.364 C 232.339 293.765, 236.091 300.186, 246.476 312.428 C 249.514 316.010, 252 319.216, 252 319.554 C 252 319.892, 250.313 318.854, 248.250 317.247 C 242.953 313.122, 238.176 310.490, 237.398 311.269 C 237.033 311.634, 239.431 314.985, 242.727 318.716 C 249.598 326.494, 252 330.668, 252 334.832 C 252 337.019, 252.909 338.456, 255.585 340.497 C 257.556 342, 259.518 342.841, 259.945 342.365 C 260.371 341.889, 261.543 337.339, 262.550 332.254 L 264.380 323.008 266.686 325.175 C 270.241 328.515, 270.668 326.513, 267.695 320.450 C 264.520 313.977, 264.296 312.544, 267 316 C 268.818 318.324, 268.957 318.357, 268.978 316.465 C 269.006 313.844, 265.533 303.968, 262.513 298.085 C 260.079 293.343, 248.512 281.154, 247.452 282.214 C 247.122 282.544, 247.629 284.318, 248.578 286.157 C 250.184 289.269, 249.851 289.104, 243.748 283.750 C 237.576 278.336, 236 277.274, 236 278.529 M 263.036 278.272 C 262.986 279.353, 270.463 293.870, 272.940 297.500 C 276.321 302.455, 275.438 297.806, 271.558 290.225 C 268.308 283.874, 263.114 276.589, 263.036 278.272 M 429.121 281.250 C 428.665 282.488, 428.042 285.975, 427.737 289 L 427.182 294.500 429.572 287 C 432.390 278.156, 432.242 279, 430.975 279 C 430.412 279, 429.577 280.012, 429.121 281.250 M 100.076 287.475 C 102.684 294.897, 102.617 301.383, 99.902 304.098 C 97.847 306.153, 96.836 306.196, 91.250 304.464 C 88.375 303.573, 88.407 304.746, 91.357 308.434 C 93.704 311.367, 93.706 311.367, 97.226 309.697 C 101.398 307.717, 103.535 303.353, 103.311 297.271 C 103.121 292.142, 100.290 282, 99.048 282 C 98.555 282, 99.017 284.464, 100.076 287.475 M 110.459 283.067 C 110.096 283.653, 110.014 284.348, 110.276 284.610 C 110.538 284.872, 111.019 284.392, 111.345 283.543 C 112.021 281.781, 111.445 281.471, 110.459 283.067 M 258 284.915 C 258 286.320, 266.668 300.878, 269.959 305 C 273.030 308.846, 272.416 305.573, 268.573 297.605 C 265.334 290.892, 258 282.089, 258 284.915 M 139 291.274 C 139 293.259, 139.423 295.144, 139.941 295.463 C 140.502 295.810, 140.646 294.522, 140.299 292.272 C 139.524 287.251, 139 286.848, 139 291.274 M 183 290 C 181.901 290.710, 182.638 290.973, 185.750 290.985 C 188.088 290.993, 190 290.550, 190 290 C 190 288.724, 184.974 288.724, 183 290 M 176 298 C 174.901 298.710, 175.638 298.973, 178.750 298.985 C 181.088 298.993, 183 298.550, 183 298 C 183 296.724, 177.974 296.724, 176 298 M 121 302.039 C 121 305.066, 125.038 308.576, 130.916 310.661 C 134.929 312.084, 135.998 312.895, 135.644 314.250 C 134.947 316.921, 138.022 316.424, 142.553 313.134 C 144.724 311.557, 148.159 309.732, 150.188 309.077 C 154.158 307.795, 159 304.425, 159 302.943 C 159 302.442, 157.313 302.909, 155.250 303.981 C 153.188 305.053, 148.277 306.481, 144.337 307.154 C 136.044 308.570, 131.416 307.533, 124.870 302.791 C 121.212 300.141, 121 300.100, 121 302.039 M 175 300.776 C 175 302.054, 179.878 303.006, 180.583 301.866 C 180.877 301.390, 180.453 301, 179.641 301 C 178.828 301, 177.452 300.727, 176.582 300.393 C 175.712 300.059, 175 300.232, 175 300.776 M 174 305 C 174 305.550, 175.575 306, 177.500 306 C 179.425 306, 181 305.550, 181 305 C 181 304.450, 179.425 304, 177.500 304 C 175.575 304, 174 304.450, 174 305 M 84.656 313.747 C 84.180 314.517, 86.120 327.303, 88.032 336 C 93.903 362.701, 96.282 371.616, 98.947 376.895 C 102.240 383.418, 107.031 389.411, 110.387 391.206 C 111.983 392.060, 111.730 391.459, 109.356 388.754 C 102.648 381.111, 102.589 373.804, 109.106 357.625 C 111.294 352.194, 112.913 347.579, 112.704 347.370 C 112.494 347.161, 111.105 349.228, 109.616 351.964 C 108.127 354.700, 106.510 357.185, 106.023 357.486 C 104.104 358.672, 104.092 355.951, 105.997 351.507 C 108.403 345.894, 108.535 344.791, 106.443 347.777 C 104.710 350.252, 103 350.701, 103 348.681 C 103 347.956, 104.753 344.468, 106.897 340.931 C 111.441 333.431, 111.315 331.126, 106.691 337.171 C 104.936 339.466, 102.938 341.528, 102.250 341.755 C 99.796 342.563, 101.059 339.335, 104.502 335.998 C 106.975 333.601, 107.690 332.295, 106.935 331.552 C 105.862 330.496, 105.170 331.119, 102.367 335.663 C 100.499 338.693, 99.465 336.175, 101.302 333.067 L 102.998 330.195 99.249 328.263 C 97.166 327.190, 93.197 323.361, 90.319 319.650 C 87.469 315.975, 84.921 313.319, 84.656 313.747 M 165 314.486 C 165 315.378, 173.033 320.301, 173.586 319.747 C 174.270 319.064, 167.723 314, 166.156 314 C 165.520 314, 165 314.219, 165 314.486 M 116.519 318.699 C 118.087 322.453, 119 323.901, 119 322.635 C 119 321.365, 116.113 315, 115.538 315 C 115.227 315, 115.669 316.664, 116.519 318.699 M 157.700 321.356 C 158.653 322.972, 173.741 337, 174.525 337 C 176.758 337, 165 323.568, 160.920 321.458 C 157.414 319.646, 156.678 319.622, 157.700 321.356 M 147.679 325.654 C 146.776 326.557, 149.458 331.176, 152.525 334 L 155.240 336.500 152.639 331.321 C 149.975 326.016, 148.735 324.599, 147.679 325.654 M 195.625 328.798 C 194.961 329.872, 196.002 331.275, 198.973 333.308 C 202.222 335.531, 203.311 335.450, 202.042 333.078 C 199.887 329.051, 196.758 326.964, 195.625 328.798 M 143.032 329.559 C 143.014 330.141, 143.661 331.491, 144.468 332.559 C 145.276 333.626, 145.951 334.024, 145.968 333.441 C 145.986 332.859, 145.339 331.509, 144.532 330.441 C 143.724 329.374, 143.049 328.976, 143.032 329.559 M 209 330.015 C 209 331.355, 215.022 334.992, 217.250 334.996 C 219.630 335.001, 219.448 333.769, 216.686 331.174 C 214.335 328.966, 209 328.161, 209 330.015 M 226 329.965 C 226 331.027, 229.231 333, 230.969 333 C 231.760 333, 231.769 332.437, 231 331 C 229.921 328.984, 226 328.172, 226 329.965 M 182 334.500 C 182.685 335.325, 183.695 336, 184.245 336 C 184.803 336, 184.694 335.337, 184 334.500 C 183.315 333.675, 182.305 333, 181.755 333 C 181.197 333, 181.306 333.663, 182 334.500 M 109.476 342.250 L 107.901 345.500 109.951 343.139 C 111.078 341.841, 112 340.378, 112 339.889 C 112 338.141, 111.026 339.052, 109.476 342.250 M 249.035 342.934 C 247.584 345.647, 247.582 345.644, 251.725 348.459 L 255.449 350.990 256.856 348.305 C 258.179 345.780, 258.092 345.484, 255.381 343.315 C 251.863 340.500, 250.386 340.411, 249.035 342.934 M 519.543 341.931 C 519.226 342.443, 519.425 343.144, 519.984 343.490 C 520.543 343.835, 521 343.416, 521 342.559 C 521 340.802, 520.400 340.544, 519.543 341.931 M 125.622 343.825 C 125.179 345.104, 125.083 346.417, 125.409 346.742 C 126.445 347.779, 127.174 346.250, 126.794 343.836 L 126.426 341.500 125.622 343.825 M 127.032 347.980 C 124.913 349.290, 126.970 355.413, 129.659 355.803 C 130.810 355.970, 132.786 357.208, 134.050 358.553 C 135.314 359.899, 137.072 361, 137.955 361 C 138.839 361, 145.398 363.924, 152.531 367.498 C 159.664 371.072, 165.628 373.997, 165.785 373.998 C 166.571 374.003, 163.318 369.061, 160.356 365.747 C 158.233 363.373, 157 362.571, 157 363.565 C 157 365.409, 153.930 364.777, 150.110 362.146 C 146.420 359.605, 145.959 359.351, 138.610 355.815 C 134.566 353.870, 131.034 351.391, 130.061 349.817 C 128.908 347.951, 127.985 347.391, 127.032 347.980 M 181 348.777 C 181 350.372, 184.165 354, 185.557 354 C 187.640 354, 187.335 352.664, 184.686 350.174 C 182.289 347.923, 181 347.434, 181 348.777 M 228 348.902 C 228 349.398, 229.433 350.304, 231.184 350.914 C 233.604 351.758, 234.547 351.733, 235.118 350.810 C 235.530 350.142, 235.646 349.237, 235.375 348.798 C 234.693 347.694, 228 347.789, 228 348.902 M 247.164 353.793 C 245.448 355.959, 241.310 359.136, 237.796 360.986 C 234.333 362.808, 231.276 364.493, 231.002 364.731 C 229.987 365.612, 234.475 368, 237.144 368 C 240.326 368, 245 366.094, 245 364.797 C 245 364.311, 247.116 361.653, 249.701 358.888 C 253.434 354.897, 254.192 353.528, 253.380 352.241 C 251.627 349.461, 250.340 349.782, 247.164 353.793 M 194 351.923 C 194 352.572, 195.561 353.754, 197.468 354.551 C 203.235 356.961, 207.208 356.078, 203.700 353.166 C 201.679 351.489, 194 350.505, 194 351.923 M 212 351.965 C 212 353.355, 215.455 355, 218.375 355 C 221.338 355, 222.838 353.145, 220.878 351.904 C 219.004 350.716, 212 350.765, 212 351.965 M 110.056 362.556 C 108.788 366.146, 107.986 369.319, 108.273 369.606 C 108.560 369.893, 109.787 367.145, 111 363.500 C 113.873 354.868, 113.057 354.053, 110.056 362.556 M 115.750 359.531 C 113.262 362.865, 113.570 364.816, 116.080 361.625 C 117.224 360.171, 118.012 358.577, 117.830 358.083 C 117.649 357.589, 116.713 358.241, 115.750 359.531 M 177.004 359.750 C 177.011 361.264, 181.004 367, 182.049 367 C 182.643 367, 182.116 365.200, 180.880 363 C 178.841 359.373, 176.994 357.824, 177.004 359.750 M 419.373 364.750 C 419.722 366.813, 420.468 375.191, 421.031 383.368 C 422.176 399.983, 421.626 403.718, 416.155 416.496 C 414.507 420.344, 413.361 423.694, 413.607 423.940 C 414.379 424.713, 426.912 411.748, 430.708 406.250 C 432.701 403.363, 434.471 401, 434.641 401 C 435.235 401, 432.850 406.507, 430.748 409.989 L 428.628 413.500 430.798 411.610 C 436.104 406.987, 443.067 390.421, 442.915 382.782 L 442.830 378.500 441.551 383.780 C 439.723 391.330, 439 391.297, 439 383.667 C 439 379.889, 438.567 377, 438 377 C 437.450 377, 437 377.690, 437 378.532 C 437 382.976, 426.848 404.181, 425.409 402.743 C 425.182 402.516, 425.667 400.118, 426.487 397.415 C 428.214 391.722, 428.634 370.490, 427 371.500 C 426.450 371.840, 425.968 374.454, 425.930 377.309 C 425.820 385.405, 424.458 387.575, 423.630 380.974 C 422.724 373.751, 419.940 361, 419.269 361 C 418.977 361, 419.024 362.688, 419.373 364.750 M 222.500 366.726 C 220.300 367.502, 216.362 367.994, 213.749 367.818 C 211.137 367.643, 208.999 367.820, 208.999 368.211 C 209 369.350, 218.995 372, 223.288 372 C 226.496 372, 227.100 371.704, 226.593 370.381 C 226.095 369.085, 226.481 368.859, 228.525 369.250 C 231.448 369.808, 231.404 368.285, 228.445 366.494 C 226.926 365.574, 225.623 365.625, 222.500 366.726 M 123.200 379.200 C 121.804 380.596, 121.600 383, 122.878 383 C 123.360 383, 124.331 382.306, 125.035 381.458 C 126.659 379.501, 124.973 377.427, 123.200 379.200 M 155 394.755 C 155 395.305, 155.675 396.315, 156.500 397 C 157.337 397.694, 158 397.803, 158 397.245 C 158 396.695, 157.325 395.685, 156.500 395 C 155.663 394.306, 155 394.197, 155 394.755 M 448.602 403.208 C 445.687 416.273, 442.116 422.075, 429.085 434.922 C 417.589 446.256, 417.790 447.203, 429.696 437.804 C 440.160 429.545, 444.376 424.132, 446.812 415.830 C 449.643 406.180, 451.268 398.299, 450.744 396.749 C 450.512 396.062, 449.548 398.969, 448.602 403.208 M 555.249 400.750 C 555.656 402.372, 555.372 403, 554.232 403 C 552.983 403, 553.130 403.510, 554.932 405.428 C 556.298 406.882, 557.838 407.616, 558.770 407.258 C 559.822 406.854, 560.084 407.054, 559.578 407.873 C 558.865 409.028, 563.724 416.609, 564.610 415.724 C 565.423 414.911, 559.147 402.444, 556.945 400.498 L 554.686 398.500 555.249 400.750 M 293.578 403.461 C 289.596 406.716, 283.506 408.136, 278.500 406.975 C 276.300 406.465, 274.072 406.037, 273.550 406.024 C 271.654 405.976, 274.533 407.769, 278.271 408.964 C 283.979 410.788, 289.226 409.470, 294.213 404.959 C 298.859 400.757, 298.351 399.559, 293.578 403.461 M 397.015 409.691 C 397.007 410.896, 397.450 412.160, 398 412.500 C 399.273 413.287, 399.273 410.970, 398 409 C 397.212 407.781, 397.028 407.910, 397.015 409.691 M 165.741 419.008 C 168.926 420.317, 178.899 421.367, 177 420.194 C 176.175 419.684, 172.800 419.002, 169.500 418.677 C 165.393 418.274, 164.207 418.378, 165.741 419.008 M 553.813 427.683 C 554.534 427.972, 555.397 427.936, 555.729 427.604 C 556.061 427.272, 555.471 427.036, 554.417 427.079 C 553.252 427.127, 553.015 427.364, 553.813 427.683 M 215.601 438.670 C 216.374 441.238, 217.230 443.563, 217.503 443.837 C 218.412 444.745, 218.016 440.345, 216.902 437.149 C 215.167 432.171, 214.041 433.487, 215.601 438.670 M 553 447.393 C 553 447.609, 553.675 448.045, 554.500 448.362 C 555.325 448.678, 556 448.501, 556 447.969 C 556 447.436, 555.325 447, 554.500 447 C 553.675 447, 553 447.177, 553 447.393 M 563 448 C 563 448.550, 563.675 449, 564.500 449 C 565.325 449, 566 448.550, 566 448 C 566 447.450, 565.325 447, 564.500 447 C 563.675 447, 563 447.450, 563 448 M 552 453.059 C 552 453.641, 552.450 453.840, 553 453.500 C 553.550 453.160, 554 452.684, 554 452.441 C 554 452.198, 553.550 452, 553 452 C 552.450 452, 552 452.477, 552 453.059 M 554.500 454 C 554.160 454.550, 554.359 455, 554.941 455 C 555.523 455, 556 454.550, 556 454 C 556 453.450, 555.802 453, 555.559 453 C 555.316 453, 554.840 453.450, 554.500 454 M 560.543 453.931 C 560.226 454.443, 560.425 455.144, 560.984 455.490 C 561.543 455.835, 562 455.416, 562 454.559 C 562 452.802, 561.400 452.544, 560.543 453.931 M 548 455.927 C 548 456.986, 548.788 458.059, 549.750 458.311 C 551.131 458.672, 551.049 458.792, 549.358 458.884 C 546.771 459.024, 545.110 463.820, 547.192 465.140 C 549.312 466.484, 550.344 466.119, 549 464.500 C 547.969 463.258, 548.077 463, 549.628 463 C 551.073 462.999, 551.500 462.259, 551.500 459.750 C 551.500 456.288, 550.482 454, 548.941 454 C 548.423 454, 548 454.867, 548 455.927 M 555 465 C 555 465.550, 555.450 466, 556 466 C 556.550 466, 557 465.550, 557 465 C 557 464.450, 556.550 464, 556 464 C 555.450 464, 555 464.450, 555 465 M 268.500 470 C 267.647 471.650, 267.174 473, 267.449 473 C 267.724 473, 268.647 471.650, 269.500 470 C 270.353 468.350, 270.826 467, 270.551 467 C 270.276 467, 269.353 468.350, 268.500 470 M 544.509 471.671 C 544.158 474.327, 543.619 477.850, 543.311 479.500 C 542.754 482.480, 542.764 482.488, 544.835 480.631 C 545.982 479.603, 546.885 478.478, 546.842 478.131 C 546.508 475.459, 547.177 473.854, 548.425 474.333 C 549.248 474.649, 550.514 473.864, 551.425 472.475 C 553.452 469.380, 553.441 469.327, 550.593 468.613 C 549.269 468.280, 547.502 467.746, 546.666 467.425 C 545.481 466.971, 545.006 467.906, 544.509 471.671 M 333.500 476 C 333.899 477.375, 334.675 478.950, 335.225 479.500 C 335.891 480.167, 335.983 479.667, 335.500 478 C 335.101 476.625, 334.325 475.050, 333.775 474.500 C 333.109 473.833, 333.017 474.333, 333.500 476 M 206.389 477.905 C 202.179 480.471, 193.691 493.406, 191.118 501.174 C 188.902 507.865, 186.882 520, 187.984 520 C 188.343 520, 189.406 518.538, 190.347 516.750 L 192.056 513.500 191.574 519.500 C 190.987 526.804, 192.159 532.359, 196.070 540.810 C 199.103 547.362, 200.905 553.740, 201.492 560 C 201.712 562.343, 200.480 566.895, 197.765 573.771 C 195.533 579.420, 193.987 584.320, 194.327 584.660 C 195.310 585.643, 201.845 580.191, 204.510 576.165 C 206.957 572.467, 210.414 560.577, 211.616 551.728 C 211.972 549.103, 212.641 546.722, 213.102 546.437 C 214.787 545.396, 215.189 551.070, 213.696 554.802 C 211.764 559.631, 208.997 575.537, 209.009 581.750 C 209.020 588.172, 210.129 597, 210.924 597 C 211.279 597, 212.041 594.638, 212.616 591.750 C 213.192 588.862, 215.356 581.100, 217.427 574.500 C 221.173 562.554, 221.185 562.459, 220.118 553.496 C 219.071 544.703, 216.467 534.998, 215.156 535.002 C 214.795 535.003, 214.384 536.624, 214.243 538.604 C 213.654 546.840, 212.311 544.885, 210.035 532.477 C 208.242 522.699, 207.858 517.995, 208.342 511.719 C 208.896 504.543, 208.796 503.775, 207.483 505.088 C 204.672 507.899, 202.001 517.654, 201.970 525.225 C 201.945 531.060, 201.719 532.120, 200.826 530.582 C 199.046 527.516, 199.649 513.321, 201.913 505 C 205.109 493.248, 204.307 491.991, 199.384 501.036 C 197.895 503.772, 196.477 505.811, 196.234 505.567 C 195.778 505.112, 201.715 493.823, 207.645 483.869 C 212.445 475.813, 212.146 474.394, 206.389 477.905 M 428.171 481.097 C 426.475 483.813, 427.721 485.102, 429.582 482.557 C 430.362 481.491, 431 480.254, 431 479.809 C 431 478.301, 429.487 478.990, 428.171 481.097 M 418.750 496.572 C 418.337 496.991, 418.029 498.946, 418.063 500.917 C 418.123 504.278, 418.187 504.348, 419.106 502.047 C 420.190 499.334, 419.932 495.372, 418.750 496.572 M 264.018 504.318 C 255.927 527.314, 254.525 529.469, 241.203 539.392 C 236.114 543.182, 232.095 546.428, 232.272 546.605 C 232.852 547.186, 242.425 544.349, 246 542.538 C 247.925 541.562, 250.992 539.647, 252.816 538.281 C 259.767 533.076, 257.176 537.345, 244.744 551.583 C 241.027 555.838, 238.193 559.526, 238.444 559.778 C 238.696 560.029, 241.899 558.832, 245.563 557.117 C 249.227 555.403, 252.461 554, 252.750 554 C 253.039 554, 249.613 557.815, 245.137 562.478 C 237.712 570.211, 233.013 576.319, 233.004 578.248 C 233.002 578.660, 235.137 577.476, 237.750 575.618 C 240.363 573.760, 246.941 569.689, 252.368 566.572 C 257.795 563.455, 264.008 559.481, 266.173 557.740 C 270.134 554.557, 277 544.717, 277 542.223 C 277 541.465, 274.425 542.864, 271.076 545.442 C 267.818 547.949, 264.941 550, 264.682 550 C 264.424 550, 265.782 546.854, 267.700 543.008 C 270.097 538.204, 271.366 534.059, 271.755 529.763 L 272.322 523.510 267.113 529.005 C 262.983 533.362, 262.202 533.879, 263.342 531.500 C 268.352 521.040, 271.078 500.011, 267.596 498.675 C 266.601 498.293, 265.560 499.935, 264.018 504.318 M 464.250 528.384 C 459.712 535.723, 456 542.464, 456 543.364 C 456 545.081, 457.154 545.513, 458.404 544.263 C 458.809 543.857, 459.867 543.520, 460.755 543.513 C 461.841 543.504, 464.090 539.702, 467.628 531.897 C 477.259 510.652, 476.013 509.356, 464.250 528.384 M 404.548 528.907 C 403.668 530.608, 403.338 532, 403.814 532 C 404.828 532, 407.292 526.959, 406.611 526.278 C 406.356 526.023, 405.428 527.206, 404.548 528.907 M 144.500 529 C 144.840 529.550, 145.541 530, 146.059 530 C 146.577 530, 147 529.550, 147 529 C 147 528.450, 146.298 528, 145.441 528 C 144.584 528, 144.160 528.450, 144.500 529 M 147.054 559 C 147.027 567.724, 148.194 570.607, 150.519 567.559 C 151.334 566.491, 151.993 564.241, 151.985 562.559 C 151.973 560.216, 151.742 559.851, 151 561 C 150.208 562.226, 150.028 562.110, 150.015 560.365 C 150.007 559.190, 149.343 556.715, 148.539 554.865 C 147.087 551.521, 147.078 551.546, 147.054 559 M 391.500 578 C 391.840 578.550, 392.568 579, 393.118 579 C 393.668 579, 393.840 578.550, 393.500 578 C 393.160 577.450, 392.432 577, 391.882 577 C 391.332 577, 391.160 577.450, 391.500 578 M 291.861 580.056 C 290.005 581.673, 289.928 581.894, 291.500 581.090 C 294.892 579.355, 296.554 578.031, 295.361 578.015 C 294.734 578.007, 293.159 578.925, 291.861 580.056 M 282.181 584.681 C 279.255 586.064, 277.073 587.406, 277.331 587.665 C 277.851 588.184, 288 583.255, 288 582.483 C 288 581.884, 288.488 581.700, 282.181 584.681 M 185.673 588.087 C 184.649 591.914, 184.877 592.847, 186.750 592.488 C 187.713 592.304, 188.838 592.119, 189.250 592.077 C 190.516 591.947, 190.089 590.332, 188.159 587.948 L 186.318 585.675 185.673 588.087 M 164.500 588 C 164.840 588.550, 165.568 589, 166.118 589 C 166.668 589, 166.840 588.550, 166.500 588 C 166.160 587.450, 165.432 587, 164.882 587 C 164.332 587, 164.160 587.450, 164.500 588 M 158 592 C 156.793 592.780, 156.951 592.972, 158.809 592.985 C 160.097 592.993, 160.845 592.558, 160.500 592 C 159.757 590.798, 159.861 590.798, 158 592 M 186.481 595.030 C 186.242 595.417, 186.871 596.479, 187.879 597.390 C 190.147 599.443, 193.401 598.540, 192.103 596.219 C 191.199 594.605, 187.259 593.772, 186.481 595.030 M 372 595 C 372 595.550, 372.423 596, 372.941 596 C 373.459 596, 374.160 595.550, 374.500 595 C 374.840 594.450, 374.416 594, 373.559 594 C 372.702 594, 372 594.450, 372 595 M 363 597.814 C 360.534 598.895, 360 599.464, 361.192 599.737 C 363.159 600.187, 368.720 597.542, 367.393 596.787 C 366.902 596.508, 364.925 596.970, 363 597.814 M 152.614 600.437 C 152.917 601.227, 153.803 601.629, 154.583 601.330 C 155.362 601.031, 156 601.359, 156 602.060 C 156 602.760, 156.236 603.098, 156.524 602.810 C 157.592 601.741, 155.722 599, 153.924 599 C 152.717 599, 152.256 599.505, 152.614 600.437 M 183.553 600.915 C 183.231 601.436, 183.394 602.125, 183.915 602.447 C 184.436 602.769, 185.125 602.606, 185.447 602.085 C 185.769 601.564, 185.606 600.875, 185.085 600.553 C 184.564 600.231, 183.875 600.394, 183.553 600.915 M 280.500 602 C 280.143 602.577, 281.070 602.994, 282.691 602.985 C 284.872 602.973, 285.165 602.753, 284 602 C 282.079 600.758, 281.267 600.758, 280.500 602 M 293 606.906 C 293 607.405, 293.900 607.577, 295 607.290 C 296.100 607.002, 297 606.594, 297 606.383 C 297 606.173, 296.100 606, 295 606 C 293.900 606, 293 606.408, 293 606.906 M 287.800 609.200 C 288.733 610.133, 289.267 610.133, 290.200 609.200 C 291.133 608.267, 290.867 608, 289 608 C 287.133 608, 286.867 608.267, 287.800 609.200" stroke="none" fill="#000000" fill-rule="evenodd"/>
</svg>